<?xml version="1.0" encoding="UTF-8"?>
<svg version="1.1" xmlns="http://www.w3.org/2000/svg" width="306" height="314">
<path d="M0 0 C100.98 0 201.96 0 306 0 C306 103.62 306 207.24 306 314 C205.02 314 104.04 314 0 314 C0 210.38 0 106.76 0 0 Z " fill="#F3F3F3" transform="translate(0,0)"/>
<path d="M0 0 C3.11836333 1.37352928 5.11865428 2.91838973 7.42578125 5.4140625 C8.05806641 6.09339844 8.69035156 6.77273437 9.34179688 7.47265625 C9.99212891 8.18292969 10.64246094 8.89320312 11.3125 9.625 C11.95123047 10.31207031 12.58996094 10.99914063 13.24804688 11.70703125 C17.02039259 15.7813175 20.70088212 19.92715609 24.34545898 24.11572266 C26.80463195 26.91635671 29.33543017 29.64740884 31.875 32.375 C36.18989514 37.02889859 40.4625313 41.71638113 44.6953125 46.4453125 C46.42947255 48.36758483 48.17335884 50.2778507 49.9296875 52.1796875 C50.42911865 52.72101318 50.9285498 53.26233887 51.44311523 53.82006836 C52.41742309 54.87460023 53.39341883 55.92757587 54.37133789 56.97875977 C56.46384696 59.24466228 58.28363838 61.42545757 60 64 C62.64 63.67 65.28 63.34 68 63 C67.51789063 62.01 67.03578125 61.02 66.5390625 60 C65.90065377 58.66685235 65.26265487 57.33350839 64.625 56 C64.30789062 55.35160156 63.99078125 54.70320313 63.6640625 54.03515625 C60.66635956 47.72748964 58.6782431 41.58324857 58.875 34.5 C58.89304687 33.6440625 58.91109375 32.788125 58.9296875 31.90625 C58.95289062 31.2771875 58.97609375 30.648125 59 30 C71.81120841 25.7295972 93.3118144 36.15015837 104.84375 41.84375 C113.52737726 46.4024186 120.75877783 52.45643711 128 59 C131.47847677 55.56516003 134.83054855 52.05156241 138.125 48.4375 C138.83994629 47.65705322 138.83994629 47.65705322 139.56933594 46.86083984 C141.94134696 44.269718 144.29674527 41.66671191 146.6328125 39.04296875 C157.93950114 26.4368547 170.56681477 15.13282529 183.52099609 4.24462891 C184.75496287 3.20620655 185.96811924 2.14311888 187.17578125 1.07421875 C189 0 189 0 191.00390625 -0.13671875 C194.25960376 1.7173086 195.40326977 4.91427477 196.9375 8.1875 C197.45908691 9.2712793 197.45908691 9.2712793 197.99121094 10.37695312 C211.69810912 39.41979588 215.30408311 70.7235989 205.90234375 101.60546875 C201.74524634 113.17488222 195.77573276 124.47472736 188 134 C188.96421875 133.97679687 189.9284375 133.95359375 190.921875 133.9296875 C192.18515625 133.91164062 193.4484375 133.89359375 194.75 133.875 C196.00296875 133.85179687 197.2559375 133.82859375 198.546875 133.8046875 C201.72820492 133.98462698 203.36521896 134.31001418 206 136 C204.70064358 142.23691082 202.00451143 146.11669305 198 151 C197.21625 152.03125 196.4325 153.0625 195.625 154.125 C192.42348787 157.63141805 188.87780963 160.28649549 185 163 C186.8522928 165.81548506 188.71712288 168.60620354 190.68359375 171.34375 C200 184.3266129 200 184.3266129 200 191 C189.52445526 195.51351126 180.16371957 196.56847562 168.875 195.125 C162.1846975 194.52619944 159.08817559 196.22112345 153.8046875 200.140625 C148.01325541 203.98007023 140.92196953 206 134 206 C134.32162109 206.63164062 134.64324219 207.26328125 134.97460938 207.9140625 C145.68203913 229.1150789 159 255.62297254 159 280 C119.4 280 79.8 280 39 280 C37.89042475 276.67127424 38.09507106 275.88860069 39.07421875 272.6484375 C39.33009766 271.79636719 39.58597656 270.94429688 39.84960938 270.06640625 C40.12611328 269.17824219 40.40261719 268.29007812 40.6875 267.375 C40.94466797 266.51003906 41.20183594 265.64507812 41.46679688 264.75390625 C43.23946723 258.94372873 45.43648917 253.50680103 48 248 C43.71 247.67 39.42 247.34 35 247 C33.55160064 241.20640257 36.03951078 237.96799774 39 233 C40.56776009 230.85330963 42.19528864 228.9594009 44 227 C43.33613281 226.443125 42.67226562 225.88625 41.98828125 225.3125 C36.55511099 220.61697183 32.42134144 216.30097049 29 210 C26.41624646 206.12436969 23.28428219 205.18579756 19.125 203.5 C11.36988758 200.32303981 11.36988758 200.32303981 8.93359375 198.1953125 C6.90697928 196.66437217 6.90697928 196.66437217 3.71484375 197.3984375 C1.84505859 197.88183594 1.84505859 197.88183594 -0.0625 198.375 C-8.47508111 200.35051917 -16.98028736 200.79881125 -25 197 C-25.33 196.01 -25.66 195.02 -26 194 C-24.99609375 192.01171875 -24.99609375 192.01171875 -23.4375 189.6875 C-18.93752182 182.54851592 -14.73821542 174.30253482 -13 166 C-13.73347656 165.73445312 -14.46695313 165.46890625 -15.22265625 165.1953125 C-24.18241762 161.33921267 -31.22663323 153.79829223 -34.875 144.8125 C-35.82723563 141.58547925 -36.31052579 139.3122751 -36 136 C-32.44362981 134.81454327 -31.29377541 135.2910019 -27.75 136.3125 C-20.55610611 138.23439812 -13.38515675 139.14243398 -6 140 C-6.29656494 139.51869629 -6.59312988 139.03739258 -6.89868164 138.54150391 C-23.41242757 111.5097131 -33.59351961 81.34525721 -26.375 49.375 C-21.84638293 31.09091292 -13.52183732 13.29807169 0 0 Z " fill="#FDFCFC" transform="translate(64,17)"/>
<path d="M0 0 C3.11836333 1.37352928 5.11865428 2.91838973 7.42578125 5.4140625 C8.05806641 6.09339844 8.69035156 6.77273437 9.34179688 7.47265625 C9.99212891 8.18292969 10.64246094 8.89320312 11.3125 9.625 C11.95123047 10.31207031 12.58996094 10.99914063 13.24804688 11.70703125 C17.02039259 15.7813175 20.70088212 19.92715609 24.34545898 24.11572266 C26.80463195 26.91635671 29.33543017 29.64740884 31.875 32.375 C36.18989514 37.02889859 40.4625313 41.71638113 44.6953125 46.4453125 C46.42947255 48.36758483 48.17335884 50.2778507 49.9296875 52.1796875 C50.42911865 52.72101318 50.9285498 53.26233887 51.44311523 53.82006836 C52.41742309 54.87460023 53.39341883 55.92757587 54.37133789 56.97875977 C56.46384696 59.24466228 58.28363838 61.42545757 60 64 C62.64 63.67 65.28 63.34 68 63 C67.51789063 62.01 67.03578125 61.02 66.5390625 60 C65.90065377 58.66685235 65.26265487 57.33350839 64.625 56 C64.30789062 55.35160156 63.99078125 54.70320313 63.6640625 54.03515625 C60.66635956 47.72748964 58.6782431 41.58324857 58.875 34.5 C58.89304687 33.6440625 58.91109375 32.788125 58.9296875 31.90625 C58.95289062 31.2771875 58.97609375 30.648125 59 30 C71.81120841 25.7295972 93.3118144 36.15015837 104.84375 41.84375 C113.52737726 46.4024186 120.75877783 52.45643711 128 59 C131.47847677 55.56516003 134.83054855 52.05156241 138.125 48.4375 C138.83994629 47.65705322 138.83994629 47.65705322 139.56933594 46.86083984 C141.94134696 44.269718 144.29674527 41.66671191 146.6328125 39.04296875 C157.93950114 26.4368547 170.56681477 15.13282529 183.52099609 4.24462891 C184.75496287 3.20620655 185.96811924 2.14311888 187.17578125 1.07421875 C189 0 189 0 191.00390625 -0.13671875 C194.25960376 1.7173086 195.40326977 4.91427477 196.9375 8.1875 C197.45908691 9.2712793 197.45908691 9.2712793 197.99121094 10.37695312 C211.69810912 39.41979588 215.30408311 70.7235989 205.90234375 101.60546875 C201.74524634 113.17488222 195.77573276 124.47472736 188 134 C188.96421875 133.97679687 189.9284375 133.95359375 190.921875 133.9296875 C192.18515625 133.91164062 193.4484375 133.89359375 194.75 133.875 C196.00296875 133.85179687 197.2559375 133.82859375 198.546875 133.8046875 C201.72820492 133.98462698 203.36521896 134.31001418 206 136 C204.70064358 142.23691082 202.00451143 146.11669305 198 151 C197.21625 152.03125 196.4325 153.0625 195.625 154.125 C192.42348787 157.63141805 188.87780963 160.28649549 185 163 C186.8522928 165.81548506 188.71712288 168.60620354 190.68359375 171.34375 C200 184.3266129 200 184.3266129 200 191 C189.52445526 195.51351126 180.16371957 196.56847562 168.875 195.125 C162.1846975 194.52619944 159.08817559 196.22112345 153.8046875 200.140625 C148.01325541 203.98007023 140.92196953 206 134 206 C134.32162109 206.63164062 134.64324219 207.26328125 134.97460938 207.9140625 C145.68203913 229.1150789 159 255.62297254 159 280 C119.4 280 79.8 280 39 280 C37.89042475 276.67127424 38.09507106 275.88860069 39.07421875 272.6484375 C39.33009766 271.79636719 39.58597656 270.94429688 39.84960938 270.06640625 C40.12611328 269.17824219 40.40261719 268.29007812 40.6875 267.375 C40.94466797 266.51003906 41.20183594 265.64507812 41.46679688 264.75390625 C43.23946723 258.94372873 45.43648917 253.50680103 48 248 C43.71 247.67 39.42 247.34 35 247 C33.55160064 241.20640257 36.03951078 237.96799774 39 233 C40.56776009 230.85330963 42.19528864 228.9594009 44 227 C43.33613281 226.443125 42.67226562 225.88625 41.98828125 225.3125 C36.55511099 220.61697183 32.42134144 216.30097049 29 210 C26.41624646 206.12436969 23.28428219 205.18579756 19.125 203.5 C11.36988758 200.32303981 11.36988758 200.32303981 8.93359375 198.1953125 C6.90697928 196.66437217 6.90697928 196.66437217 3.71484375 197.3984375 C1.84505859 197.88183594 1.84505859 197.88183594 -0.0625 198.375 C-8.47508111 200.35051917 -16.98028736 200.79881125 -25 197 C-25.33 196.01 -25.66 195.02 -26 194 C-24.99609375 192.01171875 -24.99609375 192.01171875 -23.4375 189.6875 C-18.93752182 182.54851592 -14.73821542 174.30253482 -13 166 C-13.73347656 165.73445312 -14.46695313 165.46890625 -15.22265625 165.1953125 C-24.18241762 161.33921267 -31.22663323 153.79829223 -34.875 144.8125 C-35.82723563 141.58547925 -36.31052579 139.3122751 -36 136 C-32.44362981 134.81454327 -31.29377541 135.2910019 -27.75 136.3125 C-20.55610611 138.23439812 -13.38515675 139.14243398 -6 140 C-6.29656494 139.51869629 -6.59312988 139.03739258 -6.89868164 138.54150391 C-23.41242757 111.5097131 -33.59351961 81.34525721 -26.375 49.375 C-21.84638293 31.09091292 -13.52183732 13.29807169 0 0 Z M0 5 C-11.76978211 18.63870781 -19.29295424 35.47979561 -23 53 C-23.17362061 53.774646 -23.34724121 54.54929199 -23.52612305 55.34741211 C-26.24244011 70.5523502 -24.58035743 87.33296038 -20 102 C-19.79632813 102.66612305 -19.59265625 103.33224609 -19.3828125 104.01855469 C-15.55058848 116.15984467 -9.79953694 128.83646047 -1.7578125 138.76953125 C0.00231877 141.00294226 0.43130554 142.287847 1 145 C0.24380371 144.87882813 -0.51239258 144.75765625 -1.29150391 144.6328125 C-4.73525902 144.0837545 -8.18009782 143.54181246 -11.625 143 C-12.81480469 142.80921875 -14.00460938 142.6184375 -15.23046875 142.421875 C-16.38417969 142.24140625 -17.53789063 142.0609375 -18.7265625 141.875 C-20.31331787 141.62363281 -20.31331787 141.62363281 -21.93212891 141.3671875 C-24.9869785 141.00155852 -27.92662562 140.93555178 -31 141 C-29.86913635 148.43138973 -25.42198593 153.02322112 -20 158 C-16.45256839 160.56254057 -12.80972667 162.8494627 -9 165 C-10.60401499 172.88640703 -13.57500207 179.58366422 -17.39453125 186.60351562 C-18.3325604 188.36707966 -19.17405201 190.18124584 -20 192 C-19.67 192.99 -19.34 193.98 -19 195 C-16.10391407 195.05413245 -13.20884805 195.09373641 -10.3125 195.125 C-9.49587891 195.14175781 -8.67925781 195.15851563 -7.83789062 195.17578125 C-3.29480671 195.21256735 -0.22529231 194.76115511 4 193 C8.56596147 193.26284318 12.11897889 195.58753508 16 197.8125 C31.05740366 206.10474319 47.94276377 209.16583499 65 210 C65 210.99 65 211.98 65 213 C61.81143836 212.71928021 58.62444908 212.4234285 55.4375 212.125 C54.54224609 212.04636719 53.64699219 211.96773437 52.72460938 211.88671875 C48.73790766 211.50703287 44.93895087 211.09284587 41.09765625 209.9296875 C37.90049803 208.80836087 37.90049803 208.80836087 34 209 C36.36586265 216.31266636 40.88547809 220.25923907 47.23046875 224.1171875 C48.96868674 225.14880776 48.96868674 225.14880776 51 225 C51 226.32 51 227.64 51 229 C50.41605469 229.25136719 49.83210938 229.50273437 49.23046875 229.76171875 C46.71940668 231.15577597 45.20787775 232.66221244 43.3125 234.8125 C42.71050781 235.47894531 42.10851562 236.14539063 41.48828125 236.83203125 C39.82986611 239.24783282 39.37722014 241.11803815 39 244 C44.15171623 244.09038099 48.91913204 243.84681133 54 243 C52.60352391 247.40324278 50.92620577 251.58715181 49.0625 255.8125 C44.60025041 265.56789671 44.60025041 265.56789671 43 276 C79.96 276 116.92 276 155 276 C150.70154693 256.87045347 150.70154693 256.87045347 144.625 238.5 C144.24851318 237.52716064 143.87202637 236.55432129 143.48413086 235.55200195 C137.73255779 220.77920281 137.73255779 220.77920281 130 207 C126.43230448 206.26393501 126.43230448 206.26393501 123 206 C122.67 205.01 122.34 204.02 122 203 C122.59425781 203.02320313 123.18851563 203.04640625 123.80078125 203.0703125 C136.4681109 203.3461175 146.15188178 200.40895406 157 194 C157.50660156 193.42507812 158.01320312 192.85015625 158.53515625 192.2578125 C160 191 160 191 162.71484375 190.92578125 C163.77832031 191.05339844 164.84179688 191.18101562 165.9375 191.3125 C176.68242898 192.37387478 185.66288583 192.41857319 196 189 C193.91269076 180.18691655 187.40419 173.08614073 181.1875 166.7890625 C180 165 180 165 180.0234375 163.0078125 C181.36698325 160.24548244 183.15282801 159.05744901 185.625 157.25 C191.83495792 152.4792598 197.45360191 147.09279617 201 140 C201 139.34 201 138.68 201 138 C192.84524526 137.566578 185.82316305 138.70629774 178 141 C180.2131274 137.08776189 182.78597157 133.72893643 185.625 130.25 C199.66634059 112.2870175 207.17411649 90.7028552 207.1875 67.9375 C207.19974609 66.86822266 207.21199219 65.79894531 207.22460938 64.69726562 C207.26203524 44.05066239 201.51560891 23.7199197 191 6 C186.70410233 6 184.68779637 8.52945738 181.625 11.25 C181.00141602 11.79575684 180.37783203 12.34151367 179.73535156 12.90380859 C177.81466118 14.59279202 175.90571531 16.29414996 174 18 C173.46020508 18.48049805 172.92041016 18.96099609 172.36425781 19.45605469 C159.385396 31.05575851 146.30572447 43.15079205 135.62890625 56.93359375 C134.18327509 58.76749995 132.68984016 60.39284315 131 62 C131.28617188 62.57234375 131.57234375 63.1446875 131.8671875 63.734375 C133.578125 67.15625 135.2890625 70.578125 137 74 C133.50797613 72.56210782 131.88097523 70.85404918 129.6875 67.8125 C114.81411303 48.11786684 92.33866727 39.44568903 69 34 C65.66605561 33.8309611 65.66605561 33.8309611 63 34 C62.60018092 42.95594732 65.65761734 51.66519277 70.3125 59.3125 C73.92890247 62.92890247 75.98150109 62.9149407 81 63 C81 63.66 81 64.32 81 65 C80.07960938 65.06316406 79.15921875 65.12632813 78.2109375 65.19140625 C65.48507967 66.42252284 55.73707134 70.49287451 46 79 C47.88038146 81.31167246 47.88038146 81.31167246 50.96166992 81.24291992 C52.20537354 81.23881104 53.44907715 81.23470215 54.73046875 81.23046875 C55.39911453 81.23001053 56.06776031 81.22955231 56.75666809 81.2290802 C58.17479216 81.22605653 59.59291287 81.21816674 61.01098633 81.20581055 C63.16174359 81.18771668 65.31206568 81.18529985 67.46289062 81.18554688 C73.73517125 81.16318962 79.79040091 81.00058235 86 80 C85.505 81.485 85.505 81.485 85 83 C77.9881141 84.12834946 71.05645087 84.15275953 63.96362305 84.13037109 C61.9385635 84.12500282 59.91372477 84.13034681 57.88867188 84.13671875 C56.59380859 84.13542969 55.29894531 84.13414063 53.96484375 84.1328125 C52.7955835 84.13168457 51.62632324 84.13055664 50.42163086 84.12939453 C46.88776885 83.9957558 43.48963223 83.55987567 40 83 C40.34446988 80.08825458 40.92652081 79.07084999 43.07421875 77 C44.36779297 76.01 44.36779297 76.01 45.6875 75 C46.58597656 74.3090625 47.48445313 73.618125 48.41015625 72.90625 C51.22210129 70.83652273 54.04848298 68.86411601 57 67 C50.51510229 59.40792463 43.94903226 51.91238506 37.1887207 44.5637207 C33.53626235 40.59219415 29.92342866 36.5866893 26.3203125 32.5703125 C23.68920024 29.6557134 21.03331974 26.76475312 18.375 23.875 C7.94465039 12.5227897 7.94465039 12.5227897 3.6875 7 C3.130625 6.34 2.57375 5.68 2 5 C1.34 5 0.68 5 0 5 Z " fill="#090909" transform="translate(64,17)"/>
<path d="M0 0 C3.3 0 6.6 0 10 0 C10 3.63 10 7.26 10 11 C13.63 11 17.26 11 21 11 C21 7.37 21 3.74 21 0 C24.3 0 27.6 0 31 0 C31 3.63 31 7.26 31 11 C34.63 11 38.26 11 42 11 C42 7.37 42 3.74 42 0 C45.3 0 48.6 0 52 0 C52 3.63 52 7.26 52 11 C55.63 11 59.26 11 63 11 C63 7.37 63 3.74 63 0 C66.3 0 69.6 0 73 0 C73 3.63 73 7.26 73 11 C76.63 11 80.26 11 84 11 C84 14.3 84 17.6 84 21 C87.3 21 90.6 21 94 21 C94 24.63 94 28.26 94 32 C97.63 32 101.26 32 105 32 C105 21.44 105 10.88 105 0 C108.3 0 111.6 0 115 0 C115 3.63 115 7.26 115 11 C118.63 11 122.26 11 126 11 C126 7.37 126 3.74 126 0 C129.3 0 132.6 0 136 0 C136 3.63 136 7.26 136 11 C139.63 11 143.26 11 147 11 C147 14.3 147 17.6 147 21 C143.37 21 139.74 21 136 21 C136 24.63 136 28.26 136 32 C132.7 32 129.4 32 126 32 C126 35.3 126 38.6 126 42 C122.37 42 118.74 42 115 42 C115 45.63 115 49.26 115 53 C111.7 53 108.4 53 105 53 C105 56.3 105 59.6 105 63 C107.97 63 110.94 63 114 63 C111.98127747 67.03744506 109.91899872 69.62010675 107 73 C105.02840277 71.53230976 103.06333224 70.0588091 101.11328125 68.5625 C98.91291681 66.87657424 98.91291681 66.87657424 96 65.25 C93.54371214 62.48667615 93.70274453 61.3680354 93.6875 57.75 C93.790625 56.1825 93.89375 54.615 94 53 C90.7 53 87.4 53 84 53 C84 49.37 84 45.74 84 42 C80.37 42 76.74 42 73 42 C73 38.7 73 35.4 73 32 C69.7 32 66.4 32 63 32 C63 28.37 63 24.74 63 21 C59.37 21 55.74 21 52 21 C52 24.63 52 28.26 52 32 C48.7 32 45.4 32 42 32 C42 28.37 42 24.74 42 21 C38.37 21 34.74 21 31 21 C31 24.63 31 28.26 31 32 C27.7 32 24.4 32 21 32 C21 28.37 21 24.74 21 21 C17.37 21 13.74 21 10 21 C10 24.63 10 28.26 10 32 C6.7 32 3.4 32 0 32 C0 28.37 0 24.74 0 21 C-3.63 21 -7.26 21 -11 21 C-11 17.7 -11 14.4 -11 11 C-7.37 11 -3.74 11 0 11 C0 7.37 0 3.74 0 0 Z " fill="#EFEFEF" transform="translate(86,4)"/>
<path d="M0 0 C1.20527344 -0.01224609 2.41054687 -0.02449219 3.65234375 -0.03710938 C4.80089844 -0.03904297 5.94945312 -0.04097656 7.1328125 -0.04296875 C8.1861377 -0.04707764 9.23946289 -0.05118652 10.32470703 -0.05541992 C12.875 0.1875 12.875 0.1875 14.875 2.1875 C14.31944444 6.74305556 14.31944444 6.74305556 12.875 8.1875 C11.4552324 8.3084827 10.03003683 8.36709039 8.60546875 8.3984375 C7.72149414 8.42486328 6.83751953 8.45128906 5.92675781 8.47851562 C4.98155273 8.50623047 4.03634766 8.53394531 3.0625 8.5625 C-9.81343005 8.44613404 -9.81343005 8.44613404 -21.125 13.1875 C-20.31869141 13.47471924 -19.51238281 13.76193848 -18.68164062 14.05786133 C-15.65476028 15.13643737 -12.62809278 16.21560809 -9.6015625 17.29516602 C-8.29826046 17.75991812 -6.99487686 18.22444159 -5.69140625 18.6887207 C14.60661108 25.91911108 14.60661108 25.91911108 15.875 27.1875 C16.0625 29.625 16.0625 29.625 15.875 32.1875 C15.215 32.8475 14.555 33.5075 13.875 34.1875 C8.04654515 33.83718141 2.78213583 31.9915601 -2.70703125 30.09765625 C-3.60242111 29.79306992 -4.49781097 29.48848358 -5.42033386 29.17466736 C-7.30136618 28.53298623 -9.18134224 27.88820123 -11.06030273 27.24047852 C-13.9427658 26.24818724 -16.82944984 25.26899196 -19.71679688 24.29101562 C-21.54714091 23.66483924 -23.37722843 23.03791242 -25.20703125 22.41015625 C-26.07157425 22.11738297 -26.93611725 21.82460968 -27.82685852 21.52296448 C-29.02401741 21.10759682 -29.02401741 21.10759682 -30.24536133 20.68383789 C-30.94816727 20.44258682 -31.65097321 20.20133575 -32.37507629 19.95277405 C-34.125 19.1875 -34.125 19.1875 -36.125 17.1875 C-36.53550715 14.21736001 -36.54379043 12.76468681 -34.76171875 10.30859375 C-29.33890782 5.62476306 -23.98829815 3.16975692 -17.125 1.1875 C-16.53702637 1.010979 -15.94905273 0.83445801 -15.34326172 0.65258789 C-10.34502444 -0.39535862 -5.08581999 0.00273726 0 0 Z " fill="#080808" transform="translate(207.125,123.8125)"/>
<path d="M0 0 C2.02077207 0.60077008 4.01387326 1.29307353 6 2 C6.87011719 2.29519531 7.74023438 2.59039062 8.63671875 2.89453125 C15.40819224 5.50889278 18.29447539 8.07698688 21.6015625 14.5 C23.75348166 18.34700632 26.7727609 21.05406988 30 24 C31.33333333 25.33333333 32.66666667 26.66666667 34 28 C33.52949219 28.49628906 33.05898437 28.99257812 32.57421875 29.50390625 C28.04268639 34.44824901 24 38.96571611 24 46 C30.93 46.495 30.93 46.495 38 47 C36.35 51.29 34.7 55.58 33 60 C32.67 60 32.34 60 32 60 C32 56.7 32 53.4 32 50 C28.37 50 24.74 50 21 50 C21 46.37 21 42.74 21 39 C17.7 39 14.4 39 11 39 C11 35.7 11 32.4 11 29 C7.37 29 3.74 29 0 29 C0 25.37 0 21.74 0 18 C3.63 18 7.26 18 11 18 C11 14.7 11 11.4 11 8 C7.37 8 3.74 8 0 8 C0 5.36 0 2.72 0 0 Z " fill="#FDFDFD" transform="translate(75,217)"/>
<path d="M0 0 C3.3 0 6.6 0 10 0 C10 3.63 10 7.26 10 11 C13.63 11 17.26 11 21 11 C21 7.37 21 3.74 21 0 C24.3 0 27.6 0 31 0 C31 3.63 31 7.26 31 11 C34.63 11 38.26 11 42 11 C42 7.37 42 3.74 42 0 C45.3 0 48.6 0 52 0 C52 3.63 52 7.26 52 11 C55.63 11 59.26 11 63 11 C63 12.65 63 14.3 63 16 C42.21 16 21.42 16 0 16 C0 10.72 0 5.44 0 0 Z " fill="#EFEFEF" transform="translate(128,298)"/>
<path d="M0 0 C0.74765625 0.34933594 1.4953125 0.69867188 2.265625 1.05859375 C3.74289063 1.74115234 3.74289063 1.74115234 5.25 2.4375 C6.22453125 2.88996094 7.1990625 3.34242188 8.203125 3.80859375 C10.49251695 4.78382356 12.57378746 5.4974274 15 6 C15.46939258 27.25305286 15.46939258 27.25305286 11 35 C7.95708081 36.5214596 6.39359463 36.57627079 3 36 C-5.16682469 30.09052236 -9.42233195 17.59442316 -11 8 C-10.37351563 7.59007812 -9.74703125 7.18015625 -9.1015625 6.7578125 C-8.28429687 6.21898437 -7.46703125 5.68015625 -6.625 5.125 C-5.40683594 4.32449219 -5.40683594 4.32449219 -4.1640625 3.5078125 C-1.92405904 2.04134945 -1.92405904 2.04134945 0 0 Z " fill="#FCFCFC" transform="translate(143,169)"/>
<path d="M0 0 C1.32 0.66 2.64 1.32 4 2 C3.51159618 8.47135061 3.51159618 8.47135061 1.125 10.9375 C-1 12 -1 12 -4 12 C-3.94779297 13.52367187 -3.94779297 13.52367187 -3.89453125 15.078125 C-3.66069624 24.86459732 -3.5588893 34.68191983 -9.0625 43.1875 C-12.18028548 46.10413803 -14.63773235 46.41319652 -18.91015625 46.3359375 C-23.28668105 45.63242136 -25.71255624 42.63435974 -28.3046875 39.34375 C-32.84845327 32.68332316 -37 24.10392706 -37 16 C-37.86625 16.103125 -38.7325 16.20625 -39.625 16.3125 C-44.30790874 15.87889734 -45.74190644 14.33566721 -49 11 C-49 10.01 -49 9.02 -49 8 C-47.68 8 -46.36 8 -45 8 C-44.01 9.485 -44.01 9.485 -43 11 C-37.91853919 11.9678973 -34.90641075 10.09913427 -30.81640625 7.3828125 C-28.82957692 5.9538837 -28.82957692 5.9538837 -26.8125 3.625 C-26.214375 3.08875 -25.61625 2.5525 -25 2 C-21.44272436 2.41321889 -18.54262017 3.57290739 -15.3125 5.0625 C-10.101868 7.23294371 -5.5767783 7.42715749 0 7 C-0.185625 6.030625 -0.37125 5.06125 -0.5625 4.0625 C-0.706875 3.051875 -0.85125 2.04125 -1 1 C-0.67 0.67 -0.34 0.34 0 0 Z M-23 6 C-23.93972656 6.74056641 -23.93972656 6.74056641 -24.8984375 7.49609375 C-25.71570313 8.13675781 -26.53296875 8.77742187 -27.375 9.4375 C-28.18710938 10.07558594 -28.99921875 10.71367187 -29.8359375 11.37109375 C-32 13 -32 13 -34 14 C-31.82323317 23.69997848 -28.55840079 36.00911945 -20 42 C-16.7679738 42.51712419 -14.99122109 42.67261431 -12.25 40.8125 C-7.85400976 34.43831415 -7.84990149 27.07761177 -7.9375 19.625 C-7.94201172 18.88894531 -7.94652344 18.15289062 -7.95117188 17.39453125 C-7.96284858 15.59631842 -7.98077989 13.79814803 -8 12 C-8.74765625 11.73445312 -9.4953125 11.46890625 -10.265625 11.1953125 C-11.25046875 10.84210938 -12.2353125 10.48890625 -13.25 10.125 C-14.22453125 9.77695313 -15.1990625 9.42890625 -16.203125 9.0703125 C-18.56294327 8.16725355 -20.76905116 7.17921582 -23 6 Z " fill="#101010" transform="translate(166,163)"/>
<path d="M0 0 C3.3 0 6.6 0 10 0 C10 3.63 10 7.26 10 11 C13.63 11 17.26 11 21 11 C21 14.3 21 17.6 21 21 C17.37 21 13.74 21 10 21 C10 24.63 10 28.26 10 32 C6.7 32 3.4 32 0 32 C0 28.37 0 24.74 0 21 C-3.63 21 -7.26 21 -11 21 C-11 17.7 -11 14.4 -11 11 C-7.37 11 -3.74 11 0 11 C0 7.37 0 3.74 0 0 Z " fill="#EFEFEF" transform="translate(23,172)"/>
<path d="M0 0 C3.3 0 6.6 0 10 0 C10 3.63 10 7.26 10 11 C13.63 11 17.26 11 21 11 C21 14.3 21 17.6 21 21 C17.37 21 13.74 21 10 21 C10 24.63 10 28.26 10 32 C6.7 32 3.4 32 0 32 C0 28.37 0 24.74 0 21 C-3.63 21 -7.26 21 -11 21 C-11 17.7 -11 14.4 -11 11 C-7.37 11 -3.74 11 0 11 C0 7.37 0 3.74 0 0 Z " fill="#EFEFEF" transform="translate(275,130)"/>
<path d="M0 0 C3.3 0 6.6 0 10 0 C10 3.63 10 7.26 10 11 C13.63 11 17.26 11 21 11 C21 14.3 21 17.6 21 21 C17.37 21 13.74 21 10 21 C10 24.63 10 28.26 10 32 C6.7 32 3.4 32 0 32 C0 28.37 0 24.74 0 21 C-3.63 21 -7.26 21 -11 21 C-11 17.7 -11 14.4 -11 11 C-7.37 11 -3.74 11 0 11 C0 7.37 0 3.74 0 0 Z " fill="#EFEFEF" transform="translate(275,4)"/>
<path d="M0 0 C10.82558719 0.83760018 30.8858783 3.9171283 38.98828125 12.01953125 C38.96875 13.8984375 38.96875 13.8984375 37.98828125 16.01953125 C28.46615744 23.65849182 16.10417111 28.83199366 3.98828125 30.01953125 C2.98828125 29.01953125 2.98828125 29.01953125 2.92578125 26.45703125 C2.94640625 25.65265625 2.96703125 24.84828125 2.98828125 24.01953125 C3.84164062 23.73980469 4.695 23.46007812 5.57421875 23.171875 C8.94583698 22.03385741 12.28237086 20.83404792 15.61328125 19.58203125 C16.71929687 19.17082031 17.8253125 18.75960937 18.96484375 18.3359375 C21.68950473 17.1496187 23.72170676 15.9157143 25.98828125 14.01953125 C16.7190069 11.04348251 7.4771293 8.23000153 -2.01171875 6.01953125 C-2.39390642 4.36338468 -2.72566977 2.69496101 -3.01171875 1.01953125 C-2.01171875 0.01953125 -2.01171875 0.01953125 0 0 Z " fill="#0A0A0A" transform="translate(74.01171875,123.98046875)"/>
<path d="M0 0 C0 3.63 0 7.26 0 11 C-3.63 11 -7.26 11 -11 11 C-11 14.3 -11 17.6 -11 21 C-14.3 21 -17.6 21 -21 21 C-21 17.7 -21 14.4 -21 11 C-24.63 11 -28.26 11 -32 11 C-32.33 12.32 -32.66 13.64 -33 15 C-33.66 13.02 -34.32 11.04 -35 9 C-34.02160156 8.76925781 -33.04320312 8.53851563 -32.03515625 8.30078125 C-23.27430941 6.21974527 -23.27430941 6.21974527 -15.25 2.25 C-10.24301187 -0.88056428 -5.78082953 -0.36587529 0 0 Z " fill="#EFEFEF" transform="translate(233,214)"/>
<path d="M0 0 C3.63 0 7.26 0 11 0 C11 3.3 11 6.6 11 10 C7.37 10 3.74 10 0 10 C0 13.63 0 17.26 0 21 C3.63 21 7.26 21 11 21 C11 22.65 11 24.3 11 26 C4.07 26 -2.86 26 -10 26 C-10 20.72 -10 15.44 -10 10 C-13.63 10 -17.26 10 -21 10 C-21 9.67 -21 9.34 -21 9 C-13.74 9 -6.48 9 1 9 C0.67 6.03 0.34 3.06 0 0 Z " fill="#EFEFEF" transform="translate(222,288)"/>
<path d="M0 0 C3.63 0 7.26 0 11 0 C11.67546875 1.30195313 12.3509375 2.60390625 13.046875 3.9453125 C13.94773867 5.67196788 14.84879029 7.39852521 15.75 9.125 C16.1934375 9.9809375 16.636875 10.836875 17.09375 11.71875 C19.0311143 15.42253468 20.95371713 19.04783041 23.328125 22.4921875 C25 25 25 25 25 27 C23.68 27 22.36 27 21 27 C21 25.02 21 23.04 21 21 C17.7 21 14.4 21 11 21 C11 17.7 11 14.4 11 11 C7.37 11 3.74 11 0 11 C0 7.37 0 3.74 0 0 Z " fill="#FEFEFE" transform="translate(33,130)"/>
<path d="M0 0 C3.3 0 6.6 0 10 0 C10 3.63 10 7.26 10 11 C13.63 11 17.26 11 21 11 C21 12.65 21 14.3 21 16 C14.07 16 7.14 16 0 16 C0 10.72 0 5.44 0 0 Z " fill="#EFEFEF" transform="translate(86,298)"/>
<path d="M0 0 C3.63 0 7.26 0 11 0 C11 3.63 11 7.26 11 11 C14.3 11 17.6 11 21 11 C21 13.97 21 16.94 21 20 C20.32195312 19.62488281 19.64390625 19.24976562 18.9453125 18.86328125 C12.6984262 15.428359 6.40107684 12.13805502 0 9 C0 6.03 0 3.06 0 0 Z " fill="#FEFEFE" transform="translate(159,46)"/>
<path d="M0 0 C1.98 0 3.96 0 6 0 C6 3.3 6 6.6 6 10 C9.63 10 13.26 10 17 10 C17 13.63 17 17.26 17 21 C13.37 21 9.74 21 6 21 C3.57919742 14.0834212 1.70022388 7.12647031 0 0 Z " fill="#FFFFFF" transform="translate(216,267)"/>
<path d="M0 0 C-0.59955981 3.68301024 -1.25865185 7.34309779 -2 11 C-1.18015625 10.566875 -0.3603125 10.13375 0.484375 9.6875 C2.10085937 8.8521875 2.10085937 8.8521875 3.75 8 C4.81734375 7.443125 5.8846875 6.88625 6.984375 6.3125 C10 5 10 5 14 5 C14 5.99 14 6.98 14 8 C11.06742967 9.50978518 8.12819106 11.00610203 5.1875 12.5 C4.35412109 12.92925781 3.52074219 13.35851562 2.66210938 13.80078125 C1.85966797 14.20683594 1.05722656 14.61289063 0.23046875 15.03125 C-0.50792236 15.40830078 -1.24631348 15.78535156 -2.00708008 16.17382812 C-4 17 -4 17 -7 17 C-6.85904936 15.3745692 -6.71207913 13.74965949 -6.5625 12.125 C-6.48128906 11.22007812 -6.40007812 10.31515625 -6.31640625 9.3828125 C-6 7 -6 7 -5 5 C-6.0725 5.680625 -7.145 6.36125 -8.25 7.0625 C-11.66157733 9.03471002 -11.66157733 9.03471002 -14.4375 8.75 C-14.953125 8.5025 -15.46875 8.255 -16 8 C-15 5 -15 5 -12.3828125 3.359375 C-11.30773437 2.82828125 -10.23265625 2.2971875 -9.125 1.75 C-8.05507812 1.20859375 -6.98515625 0.6671875 -5.8828125 0.109375 C-3 -1 -3 -1 0 0 Z " fill="#FF1616" transform="translate(219,166)"/>
<path d="M0 0 C3.63 0 7.26 0 11 0 C9.34311482 3.31377035 8.18062708 5.07621821 5.75 7.6875 C3.06984431 10.63400657 0.97730679 13.58238176 -1.0625 17 C-2.51171875 19.27734375 -2.51171875 19.27734375 -4 21 C-7.375 21.5625 -7.375 21.5625 -10 21 C-10 17.37 -10 13.74 -10 10 C-6.7 10 -3.4 10 0 10 C0 6.7 0 3.4 0 0 Z " fill="#EFEFEF" transform="translate(54,15)"/>
<path d="M0 0 C0 2.64 0 5.28 0 8 C0.80824219 7.6390625 1.61648437 7.278125 2.44921875 6.90625 C3.51785156 6.4421875 4.58648437 5.978125 5.6875 5.5 C6.74324219 5.0359375 7.79898438 4.571875 8.88671875 4.09375 C11.85627816 3.05049199 13.89195063 2.76934699 17 3 C17 3.99 17 4.98 17 6 C14.25138605 7.1492567 11.50122016 8.29451341 8.75 9.4375 C7.97269531 9.76298828 7.19539063 10.08847656 6.39453125 10.42382812 C5.64042969 10.73642578 4.88632813 11.04902344 4.109375 11.37109375 C3.41811523 11.65911865 2.72685547 11.94714355 2.01464844 12.24389648 C0 13 0 13 -4 14 C-4.33 10.7 -4.66 7.4 -5 4 C-6.2375 4.515625 -7.475 5.03125 -8.75 5.5625 C-11.9493138 6.89554742 -13.69564916 7.12377697 -17 6 C-16 3 -16 3 -13.671875 1.796875 C-12.70765625 1.45140625 -11.7434375 1.1059375 -10.75 0.75 C-9.79609375 0.39421875 -8.8421875 0.0384375 -7.859375 -0.328125 C-4.80985782 -1.04467822 -2.98308364 -0.84919899 0 0 Z " fill="#FF2020" transform="translate(79,170)"/>
<path d="M0 0 C1.98 0 3.96 0 6 0 C3.03 6.93 0.06 13.86 -3 21 C-5.64 21 -8.28 21 -11 21 C-11 17.37 -11 13.74 -11 10 C-7.37 10 -3.74 10 0 10 C0 6.7 0 3.4 0 0 Z " fill="#FEFEFE" transform="translate(44,36)"/>
<path d="M0 0 C0.99 0 1.98 0 3 0 C3 3.3 3 6.6 3 10 C6.3 10 9.6 10 13 10 C13 13.63 13 17.26 13 21 C9.7 21 6.4 21 3 21 C2.01 14.07 1.02 7.14 0 0 Z " fill="#EFEFEF" transform="translate(272,57)"/>
<path d="M0 0 C3.63 0 7.26 0 11 0 C11 3.63 11 7.26 11 11 C7.37 11 3.74 11 0 11 C0 7.37 0 3.74 0 0 Z " fill="#FFFFFF" transform="translate(285,298)"/>
<path d="M0 0 C3.63 0 7.26 0 11 0 C11 3.63 11 7.26 11 11 C7.37 11 3.74 11 0 11 C0 7.37 0 3.74 0 0 Z " fill="#FFFFFF" transform="translate(264,298)"/>
<path d="M0 0 C3.63 0 7.26 0 11 0 C11 3.63 11 7.26 11 11 C7.37 11 3.74 11 0 11 C0 7.37 0 3.74 0 0 Z " fill="#FFFFFF" transform="translate(243,298)"/>
<path d="M0 0 C3.63 0 7.26 0 11 0 C11 3.63 11 7.26 11 11 C7.37 11 3.74 11 0 11 C0 7.37 0 3.74 0 0 Z " fill="#FFFFFF" transform="translate(222,298)"/>
<path d="M0 0 C3.63 0 7.26 0 11 0 C11 3.63 11 7.26 11 11 C7.37 11 3.74 11 0 11 C0 7.37 0 3.74 0 0 Z " fill="#FFFFFF" transform="translate(201,298)"/>
<path d="M0 0 C3.63 0 7.26 0 11 0 C11 3.63 11 7.26 11 11 C7.37 11 3.74 11 0 11 C0 7.37 0 3.74 0 0 Z " fill="#FFFFFF" transform="translate(138,298)"/>
<path d="M0 0 C3.63 0 7.26 0 11 0 C11 3.63 11 7.26 11 11 C7.37 11 3.74 11 0 11 C0 7.37 0 3.74 0 0 Z " fill="#FFFFFF" transform="translate(117,298)"/>
<path d="M0 0 C3.63 0 7.26 0 11 0 C11 3.63 11 7.26 11 11 C7.37 11 3.74 11 0 11 C0 7.37 0 3.74 0 0 Z " fill="#FFFFFF" transform="translate(96,298)"/>
<path d="M0 0 C3.63 0 7.26 0 11 0 C11 3.63 11 7.26 11 11 C7.37 11 3.74 11 0 11 C0 7.37 0 3.74 0 0 Z " fill="#FFFFFF" transform="translate(75,298)"/>
<path d="M0 0 C3.63 0 7.26 0 11 0 C11 3.63 11 7.26 11 11 C7.37 11 3.74 11 0 11 C0 7.37 0 3.74 0 0 Z " fill="#FFFFFF" transform="translate(54,298)"/>
<path d="M0 0 C3.63 0 7.26 0 11 0 C11 3.63 11 7.26 11 11 C7.37 11 3.74 11 0 11 C0 7.37 0 3.74 0 0 Z " fill="#FFFFFF" transform="translate(33,298)"/>
<path d="M0 0 C3.63 0 7.26 0 11 0 C11 3.63 11 7.26 11 11 C7.37 11 3.74 11 0 11 C0 7.37 0 3.74 0 0 Z " fill="#FFFFFF" transform="translate(12,298)"/>
<path d="M0 0 C3.63 0 7.26 0 11 0 C11 3.63 11 7.26 11 11 C7.37 11 3.74 11 0 11 C0 7.37 0 3.74 0 0 Z " fill="#FFFFFF" transform="translate(285,277)"/>
<path d="M0 0 C3.63 0 7.26 0 11 0 C11 3.63 11 7.26 11 11 C7.37 11 3.74 11 0 11 C0 7.37 0 3.74 0 0 Z " fill="#FFFFFF" transform="translate(264,277)"/>
<path d="M0 0 C3.63 0 7.26 0 11 0 C11 3.63 11 7.26 11 11 C7.37 11 3.74 11 0 11 C0 7.37 0 3.74 0 0 Z " fill="#FFFFFF" transform="translate(243,277)"/>
<path d="M0 0 C3.63 0 7.26 0 11 0 C11 3.63 11 7.26 11 11 C7.37 11 3.74 11 0 11 C0 7.37 0 3.74 0 0 Z " fill="#FFFFFF" transform="translate(75,277)"/>
<path d="M0 0 C3.63 0 7.26 0 11 0 C11 3.63 11 7.26 11 11 C7.37 11 3.74 11 0 11 C0 7.37 0 3.74 0 0 Z " fill="#FFFFFF" transform="translate(54,277)"/>
<path d="M0 0 C3.63 0 7.26 0 11 0 C11 3.63 11 7.26 11 11 C7.37 11 3.74 11 0 11 C0 7.37 0 3.74 0 0 Z " fill="#FFFFFF" transform="translate(33,277)"/>
<path d="M0 0 C3.63 0 7.26 0 11 0 C11 3.63 11 7.26 11 11 C7.37 11 3.74 11 0 11 C0 7.37 0 3.74 0 0 Z " fill="#FFFFFF" transform="translate(12,277)"/>
<path d="M0 0 C3.63 0 7.26 0 11 0 C11 3.63 11 7.26 11 11 C7.37 11 3.74 11 0 11 C0 7.37 0 3.74 0 0 Z " fill="#FFFFFF" transform="translate(285,256)"/>
<path d="M0 0 C3.63 0 7.26 0 11 0 C11 3.63 11 7.26 11 11 C7.37 11 3.74 11 0 11 C0 7.37 0 3.74 0 0 Z " fill="#FFFFFF" transform="translate(264,256)"/>
<path d="M0 0 C3.63 0 7.26 0 11 0 C11 3.63 11 7.26 11 11 C7.37 11 3.74 11 0 11 C0 7.37 0 3.74 0 0 Z " fill="#FFFFFF" transform="translate(243,256)"/>
<path d="M0 0 C3.63 0 7.26 0 11 0 C11 3.63 11 7.26 11 11 C7.37 11 3.74 11 0 11 C0 7.37 0 3.74 0 0 Z " fill="#FFFFFF" transform="translate(222,256)"/>
<path d="M0 0 C3.63 0 7.26 0 11 0 C11 3.63 11 7.26 11 11 C7.37 11 3.74 11 0 11 C0 7.37 0 3.74 0 0 Z " fill="#FFFFFF" transform="translate(75,256)"/>
<path d="M0 0 C3.63 0 7.26 0 11 0 C11 3.63 11 7.26 11 11 C7.37 11 3.74 11 0 11 C0 7.37 0 3.74 0 0 Z " fill="#FFFFFF" transform="translate(54,256)"/>
<path d="M0 0 C3.63 0 7.26 0 11 0 C11 3.63 11 7.26 11 11 C7.37 11 3.74 11 0 11 C0 7.37 0 3.74 0 0 Z " fill="#FFFFFF" transform="translate(33,256)"/>
<path d="M0 0 C3.63 0 7.26 0 11 0 C11 3.63 11 7.26 11 11 C7.37 11 3.74 11 0 11 C0 7.37 0 3.74 0 0 Z " fill="#FFFFFF" transform="translate(12,256)"/>
<path d="M0 0 C3.63 0 7.26 0 11 0 C11 3.63 11 7.26 11 11 C7.37 11 3.74 11 0 11 C0 7.37 0 3.74 0 0 Z " fill="#FFFFFF" transform="translate(285,235)"/>
<path d="M0 0 C3.63 0 7.26 0 11 0 C11 3.63 11 7.26 11 11 C7.37 11 3.74 11 0 11 C0 7.37 0 3.74 0 0 Z " fill="#FFFFFF" transform="translate(264,235)"/>
<path d="M0 0 C3.63 0 7.26 0 11 0 C11 3.63 11 7.26 11 11 C7.37 11 3.74 11 0 11 C0 7.37 0 3.74 0 0 Z " fill="#FFFFFF" transform="translate(243,235)"/>
<path d="M0 0 C3.63 0 7.26 0 11 0 C11 3.63 11 7.26 11 11 C7.37 11 3.74 11 0 11 C0 7.37 0 3.74 0 0 Z " fill="#FFFFFF" transform="translate(222,235)"/>
<path d="M0 0 C3.63 0 7.26 0 11 0 C11 3.63 11 7.26 11 11 C7.37 11 3.74 11 0 11 C0 7.37 0 3.74 0 0 Z " fill="#FFFFFF" transform="translate(75,235)"/>
<path d="M0 0 C3.63 0 7.26 0 11 0 C11 3.63 11 7.26 11 11 C7.37 11 3.74 11 0 11 C0 7.37 0 3.74 0 0 Z " fill="#FFFFFF" transform="translate(54,235)"/>
<path d="M0 0 C3.63 0 7.26 0 11 0 C11 3.63 11 7.26 11 11 C7.37 11 3.74 11 0 11 C0 7.37 0 3.74 0 0 Z " fill="#FFFFFF" transform="translate(33,235)"/>
<path d="M0 0 C3.63 0 7.26 0 11 0 C11 3.63 11 7.26 11 11 C7.37 11 3.74 11 0 11 C0 7.37 0 3.74 0 0 Z " fill="#FFFFFF" transform="translate(12,235)"/>
<path d="M0 0 C3.63 0 7.26 0 11 0 C11 3.63 11 7.26 11 11 C7.37 11 3.74 11 0 11 C0 7.37 0 3.74 0 0 Z " fill="#FFFFFF" transform="translate(285,214)"/>
<path d="M0 0 C3.63 0 7.26 0 11 0 C11 3.63 11 7.26 11 11 C7.37 11 3.74 11 0 11 C0 7.37 0 3.74 0 0 Z " fill="#FFFFFF" transform="translate(264,214)"/>
<path d="M0 0 C3.63 0 7.26 0 11 0 C11 3.63 11 7.26 11 11 C7.37 11 3.74 11 0 11 C0 7.37 0 3.74 0 0 Z " fill="#FFFFFF" transform="translate(243,214)"/>
<path d="M0 0 C3.63 0 7.26 0 11 0 C11 3.63 11 7.26 11 11 C7.37 11 3.74 11 0 11 C0 7.37 0 3.74 0 0 Z " fill="#FFFFFF" transform="translate(222,214)"/>
<path d="M0 0 C3.63 0 7.26 0 11 0 C11 3.63 11 7.26 11 11 C7.37 11 3.74 11 0 11 C0 7.37 0 3.74 0 0 Z " fill="#FFFFFF" transform="translate(12,214)"/>
<path d="M0 0 C3.63 0 7.26 0 11 0 C11 3.63 11 7.26 11 11 C7.37 11 3.74 11 0 11 C0 7.37 0 3.74 0 0 Z " fill="#FFFFFF" transform="translate(285,193)"/>
<path d="M0 0 C3.63 0 7.26 0 11 0 C11 3.63 11 7.26 11 11 C7.37 11 3.74 11 0 11 C0 7.37 0 3.74 0 0 Z " fill="#FFFFFF" transform="translate(12,193)"/>
<path d="M0 0 C3.63 0 7.26 0 11 0 C11 3.63 11 7.26 11 11 C7.37 11 3.74 11 0 11 C0 7.37 0 3.74 0 0 Z " fill="#FFFFFF" transform="translate(285,172)"/>
<path d="M0 0 C3.63 0 7.26 0 11 0 C11 3.63 11 7.26 11 11 C7.37 11 3.74 11 0 11 C0 7.37 0 3.74 0 0 Z " fill="#FFFFFF" transform="translate(264,172)"/>
<path d="M0 0 C3.63 0 7.26 0 11 0 C11 3.63 11 7.26 11 11 C7.37 11 3.74 11 0 11 C0 7.37 0 3.74 0 0 Z " fill="#FFFFFF" transform="translate(12,172)"/>
<path d="M0 0 C3.63 0 7.26 0 11 0 C11 3.63 11 7.26 11 11 C7.37 11 3.74 11 0 11 C0 7.37 0 3.74 0 0 Z " fill="#FFFFFF" transform="translate(285,151)"/>
<path d="M0 0 C3.63 0 7.26 0 11 0 C11 3.63 11 7.26 11 11 C7.37 11 3.74 11 0 11 C0 7.37 0 3.74 0 0 Z " fill="#FFFFFF" transform="translate(12,151)"/>
<path d="M0 0 C3.63 0 7.26 0 11 0 C11 3.63 11 7.26 11 11 C7.37 11 3.74 11 0 11 C0 7.37 0 3.74 0 0 Z " fill="#FFFFFF" transform="translate(285,130)"/>
<path d="M0 0 C3.63 0 7.26 0 11 0 C11 3.63 11 7.26 11 11 C7.37 11 3.74 11 0 11 C0 7.37 0 3.74 0 0 Z " fill="#FFFFFF" transform="translate(12,130)"/>
<path d="M0 0 C3.63 0 7.26 0 11 0 C11 3.63 11 7.26 11 11 C7.37 11 3.74 11 0 11 C0 7.37 0 3.74 0 0 Z " fill="#FFFFFF" transform="translate(285,109)"/>
<path d="M0 0 C3.63 0 7.26 0 11 0 C11 3.63 11 7.26 11 11 C7.37 11 3.74 11 0 11 C0 7.37 0 3.74 0 0 Z " fill="#FFFFFF" transform="translate(12,109)"/>
<path d="M0 0 C3.63 0 7.26 0 11 0 C11 3.63 11 7.26 11 11 C7.37 11 3.74 11 0 11 C0 7.37 0 3.74 0 0 Z " fill="#FFFFFF" transform="translate(285,88)"/>
<path d="M0 0 C3.63 0 7.26 0 11 0 C11 3.63 11 7.26 11 11 C7.37 11 3.74 11 0 11 C0 7.37 0 3.74 0 0 Z " fill="#FFFFFF" transform="translate(12,88)"/>
<path d="M0 0 C3.63 0 7.26 0 11 0 C11 3.63 11 7.26 11 11 C7.37 11 3.74 11 0 11 C0 7.37 0 3.74 0 0 Z " fill="#FFFFFF" transform="translate(285,67)"/>
<path d="M0 0 C3.63 0 7.26 0 11 0 C11 3.63 11 7.26 11 11 C7.37 11 3.74 11 0 11 C0 7.37 0 3.74 0 0 Z " fill="#FFFFFF" transform="translate(12,67)"/>
<path d="M0 0 C3.63 0 7.26 0 11 0 C11 3.63 11 7.26 11 11 C7.37 11 3.74 11 0 11 C0 7.37 0 3.74 0 0 Z " fill="#FFFFFF" transform="translate(285,46)"/>
<path d="M0 0 C3.63 0 7.26 0 11 0 C11 3.63 11 7.26 11 11 C7.37 11 3.74 11 0 11 C0 7.37 0 3.74 0 0 Z " fill="#FFFFFF" transform="translate(180,46)"/>
<path d="M0 0 C3.63 0 7.26 0 11 0 C11 3.63 11 7.26 11 11 C7.37 11 3.74 11 0 11 C0 7.37 0 3.74 0 0 Z " fill="#FFFFFF" transform="translate(12,46)"/>
<path d="M0 0 C3.63 0 7.26 0 11 0 C11 3.63 11 7.26 11 11 C7.37 11 3.74 11 0 11 C0 7.37 0 3.74 0 0 Z " fill="#FFFFFF" transform="translate(285,25)"/>
<path d="M0 0 C3.63 0 7.26 0 11 0 C11 3.63 11 7.26 11 11 C7.37 11 3.74 11 0 11 C0 7.37 0 3.74 0 0 Z " fill="#FFFFFF" transform="translate(201,25)"/>
<path d="M0 0 C3.63 0 7.26 0 11 0 C11 3.63 11 7.26 11 11 C7.37 11 3.74 11 0 11 C0 7.37 0 3.74 0 0 Z " fill="#FFFFFF" transform="translate(180,25)"/>
<path d="M0 0 C3.63 0 7.26 0 11 0 C11 3.63 11 7.26 11 11 C7.37 11 3.74 11 0 11 C0 7.37 0 3.74 0 0 Z " fill="#FFFFFF" transform="translate(159,25)"/>
<path d="M0 0 C3.63 0 7.26 0 11 0 C11 3.63 11 7.26 11 11 C7.37 11 3.74 11 0 11 C0 7.37 0 3.74 0 0 Z " fill="#FFFFFF" transform="translate(138,25)"/>
<path d="M0 0 C3.63 0 7.26 0 11 0 C11 3.63 11 7.26 11 11 C7.37 11 3.74 11 0 11 C0 7.37 0 3.74 0 0 Z " fill="#FFFFFF" transform="translate(117,25)"/>
<path d="M0 0 C3.63 0 7.26 0 11 0 C11 3.63 11 7.26 11 11 C7.37 11 3.74 11 0 11 C0 7.37 0 3.74 0 0 Z " fill="#FFFFFF" transform="translate(96,25)"/>
<path d="M0 0 C3.63 0 7.26 0 11 0 C11 3.63 11 7.26 11 11 C7.37 11 3.74 11 0 11 C0 7.37 0 3.74 0 0 Z " fill="#FFFFFF" transform="translate(33,25)"/>
<path d="M0 0 C3.63 0 7.26 0 11 0 C11 3.63 11 7.26 11 11 C7.37 11 3.74 11 0 11 C0 7.37 0 3.74 0 0 Z " fill="#FFFFFF" transform="translate(12,25)"/>
<path d="M0 0 C3.63 0 7.26 0 11 0 C11 3.63 11 7.26 11 11 C7.37 11 3.74 11 0 11 C0 7.37 0 3.74 0 0 Z " fill="#FFFFFF" transform="translate(285,4)"/>
<path d="M0 0 C3.63 0 7.26 0 11 0 C11 3.63 11 7.26 11 11 C7.37 11 3.74 11 0 11 C0 7.37 0 3.74 0 0 Z " fill="#FFFFFF" transform="translate(264,4)"/>
<path d="M0 0 C3.63 0 7.26 0 11 0 C11 3.63 11 7.26 11 11 C7.37 11 3.74 11 0 11 C0 7.37 0 3.74 0 0 Z " fill="#FFFFFF" transform="translate(243,4)"/>
<path d="M0 0 C3.63 0 7.26 0 11 0 C11 3.63 11 7.26 11 11 C7.37 11 3.74 11 0 11 C0 7.37 0 3.74 0 0 Z " fill="#FFFFFF" transform="translate(222,4)"/>
<path d="M0 0 C3.63 0 7.26 0 11 0 C11 3.63 11 7.26 11 11 C7.37 11 3.74 11 0 11 C0 7.37 0 3.74 0 0 Z " fill="#FFFFFF" transform="translate(201,4)"/>
<path d="M0 0 C3.63 0 7.26 0 11 0 C11 3.63 11 7.26 11 11 C7.37 11 3.74 11 0 11 C0 7.37 0 3.74 0 0 Z " fill="#FFFFFF" transform="translate(180,4)"/>
<path d="M0 0 C3.63 0 7.26 0 11 0 C11 3.63 11 7.26 11 11 C7.37 11 3.74 11 0 11 C0 7.37 0 3.74 0 0 Z " fill="#FFFFFF" transform="translate(159,4)"/>
<path d="M0 0 C3.63 0 7.26 0 11 0 C11 3.63 11 7.26 11 11 C7.37 11 3.74 11 0 11 C0 7.37 0 3.74 0 0 Z " fill="#FFFFFF" transform="translate(138,4)"/>
<path d="M0 0 C3.63 0 7.26 0 11 0 C11 3.63 11 7.26 11 11 C7.37 11 3.74 11 0 11 C0 7.37 0 3.74 0 0 Z " fill="#FFFFFF" transform="translate(117,4)"/>
<path d="M0 0 C3.63 0 7.26 0 11 0 C11 3.63 11 7.26 11 11 C7.37 11 3.74 11 0 11 C0 7.37 0 3.74 0 0 Z " fill="#FFFFFF" transform="translate(96,4)"/>
<path d="M0 0 C3.63 0 7.26 0 11 0 C11 3.63 11 7.26 11 11 C7.37 11 3.74 11 0 11 C0 7.37 0 3.74 0 0 Z " fill="#FFFFFF" transform="translate(75,4)"/>
<path d="M0 0 C3.63 0 7.26 0 11 0 C11 3.63 11 7.26 11 11 C7.37 11 3.74 11 0 11 C0 7.37 0 3.74 0 0 Z " fill="#FFFFFF" transform="translate(54,4)"/>
<path d="M0 0 C3.63 0 7.26 0 11 0 C11 3.63 11 7.26 11 11 C7.37 11 3.74 11 0 11 C0 7.37 0 3.74 0 0 Z " fill="#FFFFFF" transform="translate(33,4)"/>
<path d="M0 0 C3.63 0 7.26 0 11 0 C11 3.63 11 7.26 11 11 C7.37 11 3.74 11 0 11 C0 7.37 0 3.74 0 0 Z " fill="#FFFFFF" transform="translate(12,4)"/>
<path d="M0 0 C3.63 0 7.26 0 11 0 C11.09765625 7.71484375 11.09765625 7.71484375 11 10 C10 11 10 11 7.71484375 11.09765625 C5.14322917 11.06510417 2.57161458 11.03255208 0 11 C0 7.37 0 3.74 0 0 Z " fill="#FFFFFF" transform="translate(222,25)"/>
<path d="M0 0 C3.3 0 6.6 0 10 0 C10 3.63 10 7.26 10 11 C6.7 11 3.4 11 0 11 C0 7.37 0 3.74 0 0 Z " fill="#EFEFEF" transform="translate(2,298)"/>
<path d="M0 0 C3.63 0 7.26 0 11 0 C11 3.3 11 6.6 11 10 C7.37 10 3.74 10 0 10 C0 6.7 0 3.4 0 0 Z " fill="#EFEFEF" transform="translate(285,288)"/>
<path d="M0 0 C3.63 0 7.26 0 11 0 C11 3.3 11 6.6 11 10 C7.37 10 3.74 10 0 10 C0 6.7 0 3.4 0 0 Z " fill="#EFEFEF" transform="translate(264,288)"/>
<path d="M0 0 C3.63 0 7.26 0 11 0 C11 3.3 11 6.6 11 10 C7.37 10 3.74 10 0 10 C0 6.7 0 3.4 0 0 Z " fill="#EFEFEF" transform="translate(243,288)"/>
<path d="M0 0 C3.63 0 7.26 0 11 0 C11 3.3 11 6.6 11 10 C7.37 10 3.74 10 0 10 C0 6.7 0 3.4 0 0 Z " fill="#EFEFEF" transform="translate(75,288)"/>
<path d="M0 0 C3.63 0 7.26 0 11 0 C11 3.3 11 6.6 11 10 C7.37 10 3.74 10 0 10 C0 6.7 0 3.4 0 0 Z " fill="#EFEFEF" transform="translate(54,288)"/>
<path d="M0 0 C3.63 0 7.26 0 11 0 C11 3.3 11 6.6 11 10 C7.37 10 3.74 10 0 10 C0 6.7 0 3.4 0 0 Z " fill="#EFEFEF" transform="translate(12,288)"/>
<path d="M0 0 C3.3 0 6.6 0 10 0 C10 3.63 10 7.26 10 11 C6.7 11 3.4 11 0 11 C0 7.37 0 3.74 0 0 Z " fill="#EFEFEF" transform="translate(296,277)"/>
<path d="M0 0 C3.3 0 6.6 0 10 0 C10 3.63 10 7.26 10 11 C6.7 11 3.4 11 0 11 C0 7.37 0 3.74 0 0 Z " fill="#EFEFEF" transform="translate(2,277)"/>
<path d="M0 0 C3.63 0 7.26 0 11 0 C11 3.3 11 6.6 11 10 C7.37 10 3.74 10 0 10 C0 6.7 0 3.4 0 0 Z " fill="#EFEFEF" transform="translate(285,267)"/>
<path d="M0 0 C3.63 0 7.26 0 11 0 C11 3.3 11 6.6 11 10 C7.37 10 3.74 10 0 10 C0 6.7 0 3.4 0 0 Z " fill="#EFEFEF" transform="translate(264,267)"/>
<path d="M0 0 C3.63 0 7.26 0 11 0 C11 3.3 11 6.6 11 10 C7.37 10 3.74 10 0 10 C0 6.7 0 3.4 0 0 Z " fill="#EFEFEF" transform="translate(222,267)"/>
<path d="M0 0 C3.63 0 7.26 0 11 0 C11 3.3 11 6.6 11 10 C7.37 10 3.74 10 0 10 C0 6.7 0 3.4 0 0 Z " fill="#EFEFEF" transform="translate(96,267)"/>
<path d="M0 0 C3.63 0 7.26 0 11 0 C11 3.3 11 6.6 11 10 C7.37 10 3.74 10 0 10 C0 6.7 0 3.4 0 0 Z " fill="#EFEFEF" transform="translate(75,267)"/>
<path d="M0 0 C3.63 0 7.26 0 11 0 C11 3.3 11 6.6 11 10 C7.37 10 3.74 10 0 10 C0 6.7 0 3.4 0 0 Z " fill="#EFEFEF" transform="translate(54,267)"/>
<path d="M0 0 C3.63 0 7.26 0 11 0 C11 3.3 11 6.6 11 10 C7.37 10 3.74 10 0 10 C0 6.7 0 3.4 0 0 Z " fill="#EFEFEF" transform="translate(12,267)"/>
<path d="M0 0 C3.3 0 6.6 0 10 0 C10 3.63 10 7.26 10 11 C6.7 11 3.4 11 0 11 C0 7.37 0 3.74 0 0 Z " fill="#EFEFEF" transform="translate(2,256)"/>
<path d="M0 0 C3.63 0 7.26 0 11 0 C11 3.3 11 6.6 11 10 C7.37 10 3.74 10 0 10 C0 6.7 0 3.4 0 0 Z " fill="#EFEFEF" transform="translate(285,246)"/>
<path d="M0 0 C3.63 0 7.26 0 11 0 C11 3.3 11 6.6 11 10 C7.37 10 3.74 10 0 10 C0 6.7 0 3.4 0 0 Z " fill="#EFEFEF" transform="translate(264,246)"/>
<path d="M0 0 C3.63 0 7.26 0 11 0 C11 3.3 11 6.6 11 10 C7.37 10 3.74 10 0 10 C0 6.7 0 3.4 0 0 Z " fill="#EFEFEF" transform="translate(243,246)"/>
<path d="M0 0 C3.63 0 7.26 0 11 0 C11 3.3 11 6.6 11 10 C7.37 10 3.74 10 0 10 C0 6.7 0 3.4 0 0 Z " fill="#EFEFEF" transform="translate(75,246)"/>
<path d="M0 0 C3.63 0 7.26 0 11 0 C11 3.3 11 6.6 11 10 C7.37 10 3.74 10 0 10 C0 6.7 0 3.4 0 0 Z " fill="#EFEFEF" transform="translate(54,246)"/>
<path d="M0 0 C3.63 0 7.26 0 11 0 C11 3.3 11 6.6 11 10 C7.37 10 3.74 10 0 10 C0 6.7 0 3.4 0 0 Z " fill="#EFEFEF" transform="translate(33,246)"/>
<path d="M0 0 C3.63 0 7.26 0 11 0 C11 3.3 11 6.6 11 10 C7.37 10 3.74 10 0 10 C0 6.7 0 3.4 0 0 Z " fill="#EFEFEF" transform="translate(12,246)"/>
<path d="M0 0 C3.3 0 6.6 0 10 0 C10 3.63 10 7.26 10 11 C6.7 11 3.4 11 0 11 C0 7.37 0 3.74 0 0 Z " fill="#EFEFEF" transform="translate(212,235)"/>
<path d="M0 0 C3.3 0 6.6 0 10 0 C10 3.63 10 7.26 10 11 C6.7 11 3.4 11 0 11 C0 7.37 0 3.74 0 0 Z " fill="#EFEFEF" transform="translate(86,235)"/>
<path d="M0 0 C3.3 0 6.6 0 10 0 C10 3.63 10 7.26 10 11 C6.7 11 3.4 11 0 11 C0 7.37 0 3.74 0 0 Z " fill="#EFEFEF" transform="translate(2,235)"/>
<path d="M0 0 C3.63 0 7.26 0 11 0 C11 3.3 11 6.6 11 10 C7.37 10 3.74 10 0 10 C0 6.7 0 3.4 0 0 Z " fill="#EFEFEF" transform="translate(285,225)"/>
<path d="M0 0 C3.63 0 7.26 0 11 0 C11 3.3 11 6.6 11 10 C7.37 10 3.74 10 0 10 C0 6.7 0 3.4 0 0 Z " fill="#EFEFEF" transform="translate(264,225)"/>
<path d="M0 0 C3.63 0 7.26 0 11 0 C11 3.3 11 6.6 11 10 C7.37 10 3.74 10 0 10 C0 6.7 0 3.4 0 0 Z " fill="#EFEFEF" transform="translate(243,225)"/>
<path d="M0 0 C3.63 0 7.26 0 11 0 C11 3.3 11 6.6 11 10 C7.37 10 3.74 10 0 10 C0 6.7 0 3.4 0 0 Z " fill="#EFEFEF" transform="translate(222,225)"/>
<path d="M0 0 C3.63 0 7.26 0 11 0 C11 3.3 11 6.6 11 10 C7.37 10 3.74 10 0 10 C0 6.7 0 3.4 0 0 Z " fill="#EFEFEF" transform="translate(54,225)"/>
<path d="M0 0 C3.63 0 7.26 0 11 0 C11 3.3 11 6.6 11 10 C7.37 10 3.74 10 0 10 C0 6.7 0 3.4 0 0 Z " fill="#EFEFEF" transform="translate(33,225)"/>
<path d="M0 0 C3.63 0 7.26 0 11 0 C11 3.3 11 6.6 11 10 C7.37 10 3.74 10 0 10 C0 6.7 0 3.4 0 0 Z " fill="#EFEFEF" transform="translate(12,225)"/>
<path d="M0 0 C3.3 0 6.6 0 10 0 C10 3.63 10 7.26 10 11 C6.7 11 3.4 11 0 11 C0 7.37 0 3.74 0 0 Z " fill="#EFEFEF" transform="translate(2,214)"/>
<path d="M0 0 C3.63 0 7.26 0 11 0 C11 3.3 11 6.6 11 10 C7.37 10 3.74 10 0 10 C0 6.7 0 3.4 0 0 Z " fill="#EFEFEF" transform="translate(264,204)"/>
<path d="M0 0 C3.63 0 7.26 0 11 0 C11 3.3 11 6.6 11 10 C7.37 10 3.74 10 0 10 C0 6.7 0 3.4 0 0 Z " fill="#EFEFEF" transform="translate(12,204)"/>
<path d="M0 0 C3.3 0 6.6 0 10 0 C10 3.63 10 7.26 10 11 C6.7 11 3.4 11 0 11 C0 7.37 0 3.74 0 0 Z " fill="#EFEFEF" transform="translate(2,193)"/>
<path d="M0 0 C3.63 0 7.26 0 11 0 C11 3.3 11 6.6 11 10 C7.37 10 3.74 10 0 10 C0 6.7 0 3.4 0 0 Z " fill="#EFEFEF" transform="translate(264,183)"/>
<path d="M0 0 C3.63 0 7.26 0 11 0 C11 3.3 11 6.6 11 10 C7.37 10 3.74 10 0 10 C0 6.7 0 3.4 0 0 Z " fill="#EFEFEF" transform="translate(12,183)"/>
<path d="M0 0 C3.3 0 6.6 0 10 0 C10 3.63 10 7.26 10 11 C6.7 11 3.4 11 0 11 C0 7.37 0 3.74 0 0 Z " fill="#EFEFEF" transform="translate(2,172)"/>
<path d="M0 0 C3.63 0 7.26 0 11 0 C11 3.3 11 6.6 11 10 C7.37 10 3.74 10 0 10 C0 6.7 0 3.4 0 0 Z " fill="#EFEFEF" transform="translate(285,162)"/>
<path d="M0 0 C3.63 0 7.26 0 11 0 C11 3.3 11 6.6 11 10 C7.37 10 3.74 10 0 10 C0 6.7 0 3.4 0 0 Z " fill="#EFEFEF" transform="translate(12,162)"/>
<path d="M0 0 C3.3 0 6.6 0 10 0 C10 3.63 10 7.26 10 11 C6.7 11 3.4 11 0 11 C0 7.37 0 3.74 0 0 Z " fill="#EFEFEF" transform="translate(2,151)"/>
<path d="M0 0 C3.63 0 7.26 0 11 0 C11 3.3 11 6.6 11 10 C7.37 10 3.74 10 0 10 C0 6.7 0 3.4 0 0 Z " fill="#EFEFEF" transform="translate(264,141)"/>
<path d="M0 0 C3.3 0 6.6 0 10 0 C10 3.63 10 7.26 10 11 C6.7 11 3.4 11 0 11 C0 7.37 0 3.74 0 0 Z " fill="#EFEFEF" transform="translate(2,130)"/>
<path d="M0 0 C3.63 0 7.26 0 11 0 C11 3.3 11 6.6 11 10 C7.37 10 3.74 10 0 10 C0 6.7 0 3.4 0 0 Z " fill="#EFEFEF" transform="translate(285,120)"/>
<path d="M0 0 C3.63 0 7.26 0 11 0 C11 3.3 11 6.6 11 10 C7.37 10 3.74 10 0 10 C0 6.7 0 3.4 0 0 Z " fill="#EFEFEF" transform="translate(12,120)"/>
<path d="M0 0 C3.3 0 6.6 0 10 0 C10 3.63 10 7.26 10 11 C6.7 11 3.4 11 0 11 C0 7.37 0 3.74 0 0 Z " fill="#EFEFEF" transform="translate(275,109)"/>
<path d="M0 0 C3.3 0 6.6 0 10 0 C10 3.63 10 7.26 10 11 C6.7 11 3.4 11 0 11 C0 7.37 0 3.74 0 0 Z " fill="#EFEFEF" transform="translate(23,109)"/>
<path d="M0 0 C3.3 0 6.6 0 10 0 C10 3.63 10 7.26 10 11 C6.7 11 3.4 11 0 11 C0 7.37 0 3.74 0 0 Z " fill="#EFEFEF" transform="translate(2,109)"/>
<path d="M0 0 C3.63 0 7.26 0 11 0 C11 3.3 11 6.6 11 10 C7.37 10 3.74 10 0 10 C0 6.7 0 3.4 0 0 Z " fill="#EFEFEF" transform="translate(285,99)"/>
<path d="M0 0 C3.63 0 7.26 0 11 0 C11 3.3 11 6.6 11 10 C7.37 10 3.74 10 0 10 C0 6.7 0 3.4 0 0 Z " fill="#EFEFEF" transform="translate(12,99)"/>
<path d="M0 0 C3.3 0 6.6 0 10 0 C10 3.63 10 7.26 10 11 C6.7 11 3.4 11 0 11 C0 7.37 0 3.74 0 0 Z " fill="#EFEFEF" transform="translate(23,88)"/>
<path d="M0 0 C3.3 0 6.6 0 10 0 C10 3.63 10 7.26 10 11 C6.7 11 3.4 11 0 11 C0 7.37 0 3.74 0 0 Z " fill="#EFEFEF" transform="translate(2,88)"/>
<path d="M0 0 C3.63 0 7.26 0 11 0 C11 3.3 11 6.6 11 10 C7.37 10 3.74 10 0 10 C0 6.7 0 3.4 0 0 Z " fill="#EFEFEF" transform="translate(285,78)"/>
<path d="M0 0 C3.63 0 7.26 0 11 0 C11 3.3 11 6.6 11 10 C7.37 10 3.74 10 0 10 C0 6.7 0 3.4 0 0 Z " fill="#EFEFEF" transform="translate(12,78)"/>
<path d="M0 0 C3.3 0 6.6 0 10 0 C10 3.63 10 7.26 10 11 C6.7 11 3.4 11 0 11 C0 7.37 0 3.74 0 0 Z " fill="#EFEFEF" transform="translate(23,67)"/>
<path d="M0 0 C3.3 0 6.6 0 10 0 C10 3.63 10 7.26 10 11 C6.7 11 3.4 11 0 11 C0 7.37 0 3.74 0 0 Z " fill="#EFEFEF" transform="translate(2,67)"/>
<path d="M0 0 C3.63 0 7.26 0 11 0 C11 3.3 11 6.6 11 10 C7.37 10 3.74 10 0 10 C0 6.7 0 3.4 0 0 Z " fill="#EFEFEF" transform="translate(285,57)"/>
<path d="M0 0 C3.63 0 7.26 0 11 0 C11 3.3 11 6.6 11 10 C7.37 10 3.74 10 0 10 C0 6.7 0 3.4 0 0 Z " fill="#EFEFEF" transform="translate(12,57)"/>
<path d="M0 0 C3.3 0 6.6 0 10 0 C10 3.63 10 7.26 10 11 C6.7 11 3.4 11 0 11 C0 7.37 0 3.74 0 0 Z " fill="#EFEFEF" transform="translate(107,46)"/>
<path d="M0 0 C3.3 0 6.6 0 10 0 C10 3.63 10 7.26 10 11 C6.7 11 3.4 11 0 11 C0 7.37 0 3.74 0 0 Z " fill="#EFEFEF" transform="translate(2,46)"/>
<path d="M0 0 C3.63 0 7.26 0 11 0 C11 3.3 11 6.6 11 10 C7.37 10 3.74 10 0 10 C0 6.7 0 3.4 0 0 Z " fill="#EFEFEF" transform="translate(285,36)"/>
<path d="M0 0 C3.63 0 7.26 0 11 0 C11 3.3 11 6.6 11 10 C7.37 10 3.74 10 0 10 C0 6.7 0 3.4 0 0 Z " fill="#EFEFEF" transform="translate(201,36)"/>
<path d="M0 0 C3.63 0 7.26 0 11 0 C11 3.3 11 6.6 11 10 C7.37 10 3.74 10 0 10 C0 6.7 0 3.4 0 0 Z " fill="#EFEFEF" transform="translate(159,36)"/>
<path d="M0 0 C3.63 0 7.26 0 11 0 C11 3.3 11 6.6 11 10 C7.37 10 3.74 10 0 10 C0 6.7 0 3.4 0 0 Z " fill="#EFEFEF" transform="translate(138,36)"/>
<path d="M0 0 C3.63 0 7.26 0 11 0 C11 3.3 11 6.6 11 10 C7.37 10 3.74 10 0 10 C0 6.7 0 3.4 0 0 Z " fill="#EFEFEF" transform="translate(96,36)"/>
<path d="M0 0 C3.63 0 7.26 0 11 0 C11 3.3 11 6.6 11 10 C7.37 10 3.74 10 0 10 C0 6.7 0 3.4 0 0 Z " fill="#EFEFEF" transform="translate(12,36)"/>
<path d="M0 0 C3.3 0 6.6 0 10 0 C10 3.63 10 7.26 10 11 C6.7 11 3.4 11 0 11 C0 7.37 0 3.74 0 0 Z " fill="#EFEFEF" transform="translate(2,25)"/>
<path d="M0 0 C3.63 0 7.26 0 11 0 C11 3.3 11 6.6 11 10 C7.37 10 3.74 10 0 10 C0 6.7 0 3.4 0 0 Z " fill="#EFEFEF" transform="translate(264,15)"/>
<path d="M0 0 C3.63 0 7.26 0 11 0 C11 3.3 11 6.6 11 10 C7.37 10 3.74 10 0 10 C0 6.7 0 3.4 0 0 Z " fill="#EFEFEF" transform="translate(222,15)"/>
<path d="M0 0 C3.63 0 7.26 0 11 0 C11 3.3 11 6.6 11 10 C7.37 10 3.74 10 0 10 C0 6.7 0 3.4 0 0 Z " fill="#EFEFEF" transform="translate(201,15)"/>
<path d="M0 0 C3.63 0 7.26 0 11 0 C11 3.3 11 6.6 11 10 C7.37 10 3.74 10 0 10 C0 6.7 0 3.4 0 0 Z " fill="#EFEFEF" transform="translate(180,15)"/>
<path d="M0 0 C3.63 0 7.26 0 11 0 C11 3.3 11 6.6 11 10 C7.37 10 3.74 10 0 10 C0 6.7 0 3.4 0 0 Z " fill="#EFEFEF" transform="translate(159,15)"/>
<path d="M0 0 C3.63 0 7.26 0 11 0 C11 3.3 11 6.6 11 10 C7.37 10 3.74 10 0 10 C0 6.7 0 3.4 0 0 Z " fill="#EFEFEF" transform="translate(138,15)"/>
<path d="M0 0 C3.63 0 7.26 0 11 0 C11 3.3 11 6.6 11 10 C7.37 10 3.74 10 0 10 C0 6.7 0 3.4 0 0 Z " fill="#EFEFEF" transform="translate(117,15)"/>
<path d="M0 0 C3.63 0 7.26 0 11 0 C11 3.3 11 6.6 11 10 C7.37 10 3.74 10 0 10 C0 6.7 0 3.4 0 0 Z " fill="#EFEFEF" transform="translate(75,15)"/>
<path d="M0 0 C3.63 0 7.26 0 11 0 C11 3.3 11 6.6 11 10 C7.37 10 3.74 10 0 10 C0 6.7 0 3.4 0 0 Z " fill="#EFEFEF" transform="translate(12,15)"/>
<path d="M0 0 C3.3 0 6.6 0 10 0 C10 3.63 10 7.26 10 11 C6.7 11 3.4 11 0 11 C0 7.37 0 3.74 0 0 Z " fill="#EFEFEF" transform="translate(254,4)"/>
<path d="M0 0 C3.3 0 6.6 0 10 0 C10 3.63 10 7.26 10 11 C6.7 11 3.4 11 0 11 C0 7.37 0 3.74 0 0 Z " fill="#EFEFEF" transform="translate(233,4)"/>
<path d="M0 0 C3.3 0 6.6 0 10 0 C10 3.63 10 7.26 10 11 C6.7 11 3.4 11 0 11 C0 7.37 0 3.74 0 0 Z " fill="#EFEFEF" transform="translate(65,4)"/>
<path d="M0 0 C3.3 0 6.6 0 10 0 C10 3.63 10 7.26 10 11 C6.7 11 3.4 11 0 11 C0 7.37 0 3.74 0 0 Z " fill="#EFEFEF" transform="translate(2,4)"/>
<path d="M0 0 C3.63 0 7.26 0 11 0 C9.125 8.75 9.125 8.75 8 11 C5.36 11 2.72 11 0 11 C0 7.37 0 3.74 0 0 Z " fill="#FFFFFF" transform="translate(96,277)"/>
<path d="M0 0 C3.63 0 7.26 0 11 0 C11 3.3 11 6.6 11 10 C8.03 10 5.06 10 2 10 C0.0044484 6.00889681 -0.19546065 4.30013434 0 0 Z " fill="#EFEFEF" transform="translate(201,225)"/>
<path d="M0 0 C0 3.63 0 7.26 0 11 C-3.3 11 -6.6 11 -10 11 C-10.48541424 3.59743291 -10.48541424 3.59743291 -8.375 1 C-5.44617664 -0.23318878 -3.14711179 -0.2145758 0 0 Z " fill="#EFEFEF" transform="translate(264,172)"/>
<path d="M0 0 C3.3 0 6.6 0 10 0 C10 3.3 10 6.6 10 10 C6.7 10 3.4 10 0 10 C0 6.7 0 3.4 0 0 Z " fill="#FFFFFF" transform="translate(296,288)"/>
<path d="M0 0 C3.3 0 6.6 0 10 0 C10 3.3 10 6.6 10 10 C6.7 10 3.4 10 0 10 C0 6.7 0 3.4 0 0 Z " fill="#FFFFFF" transform="translate(275,288)"/>
<path d="M0 0 C3.3 0 6.6 0 10 0 C10 3.3 10 6.6 10 10 C6.7 10 3.4 10 0 10 C0 6.7 0 3.4 0 0 Z " fill="#FFFFFF" transform="translate(254,288)"/>
<path d="M0 0 C3.3 0 6.6 0 10 0 C10 3.3 10 6.6 10 10 C6.7 10 3.4 10 0 10 C0 6.7 0 3.4 0 0 Z " fill="#FFFFFF" transform="translate(233,288)"/>
<path d="M0 0 C3.3 0 6.6 0 10 0 C10 3.3 10 6.6 10 10 C6.7 10 3.4 10 0 10 C0 6.7 0 3.4 0 0 Z " fill="#FFFFFF" transform="translate(86,288)"/>
<path d="M0 0 C3.3 0 6.6 0 10 0 C10 3.3 10 6.6 10 10 C6.7 10 3.4 10 0 10 C0 6.7 0 3.4 0 0 Z " fill="#FFFFFF" transform="translate(65,288)"/>
<path d="M0 0 C3.3 0 6.6 0 10 0 C10 3.3 10 6.6 10 10 C6.7 10 3.4 10 0 10 C0 6.7 0 3.4 0 0 Z " fill="#FFFFFF" transform="translate(44,288)"/>
<path d="M0 0 C3.3 0 6.6 0 10 0 C10 3.3 10 6.6 10 10 C6.7 10 3.4 10 0 10 C0 6.7 0 3.4 0 0 Z " fill="#FFFFFF" transform="translate(23,288)"/>
<path d="M0 0 C3.3 0 6.6 0 10 0 C10 3.3 10 6.6 10 10 C6.7 10 3.4 10 0 10 C0 6.7 0 3.4 0 0 Z " fill="#FFFFFF" transform="translate(296,267)"/>
<path d="M0 0 C3.3 0 6.6 0 10 0 C10 3.3 10 6.6 10 10 C6.7 10 3.4 10 0 10 C0 6.7 0 3.4 0 0 Z " fill="#FFFFFF" transform="translate(275,267)"/>
<path d="M0 0 C3.3 0 6.6 0 10 0 C10 3.3 10 6.6 10 10 C6.7 10 3.4 10 0 10 C0 6.7 0 3.4 0 0 Z " fill="#FFFFFF" transform="translate(254,267)"/>
<path d="M0 0 C3.3 0 6.6 0 10 0 C10 3.3 10 6.6 10 10 C6.7 10 3.4 10 0 10 C0 6.7 0 3.4 0 0 Z " fill="#FFFFFF" transform="translate(233,267)"/>
<path d="M0 0 C3.3 0 6.6 0 10 0 C10 3.3 10 6.6 10 10 C6.7 10 3.4 10 0 10 C0 6.7 0 3.4 0 0 Z " fill="#FFFFFF" transform="translate(86,267)"/>
<path d="M0 0 C3.3 0 6.6 0 10 0 C10 3.3 10 6.6 10 10 C6.7 10 3.4 10 0 10 C0 6.7 0 3.4 0 0 Z " fill="#FFFFFF" transform="translate(65,267)"/>
<path d="M0 0 C3.3 0 6.6 0 10 0 C10 3.3 10 6.6 10 10 C6.7 10 3.4 10 0 10 C0 6.7 0 3.4 0 0 Z " fill="#FFFFFF" transform="translate(44,267)"/>
<path d="M0 0 C3.3 0 6.6 0 10 0 C10 3.3 10 6.6 10 10 C6.7 10 3.4 10 0 10 C0 6.7 0 3.4 0 0 Z " fill="#FFFFFF" transform="translate(23,267)"/>
<path d="M0 0 C3.3 0 6.6 0 10 0 C10 3.3 10 6.6 10 10 C6.7 10 3.4 10 0 10 C0 6.7 0 3.4 0 0 Z " fill="#FFFFFF" transform="translate(296,246)"/>
<path d="M0 0 C3.3 0 6.6 0 10 0 C10 3.3 10 6.6 10 10 C6.7 10 3.4 10 0 10 C0 6.7 0 3.4 0 0 Z " fill="#FFFFFF" transform="translate(275,246)"/>
<path d="M0 0 C3.3 0 6.6 0 10 0 C10 3.3 10 6.6 10 10 C6.7 10 3.4 10 0 10 C0 6.7 0 3.4 0 0 Z " fill="#FFFFFF" transform="translate(254,246)"/>
<path d="M0 0 C3.3 0 6.6 0 10 0 C10 3.3 10 6.6 10 10 C6.7 10 3.4 10 0 10 C0 6.7 0 3.4 0 0 Z " fill="#FFFFFF" transform="translate(233,246)"/>
<path d="M0 0 C3.3 0 6.6 0 10 0 C10 3.3 10 6.6 10 10 C6.7 10 3.4 10 0 10 C0 6.7 0 3.4 0 0 Z " fill="#FFFFFF" transform="translate(86,246)"/>
<path d="M0 0 C3.3 0 6.6 0 10 0 C10 3.3 10 6.6 10 10 C6.7 10 3.4 10 0 10 C0 6.7 0 3.4 0 0 Z " fill="#FFFFFF" transform="translate(65,246)"/>
<path d="M0 0 C3.3 0 6.6 0 10 0 C10 3.3 10 6.6 10 10 C6.7 10 3.4 10 0 10 C0 6.7 0 3.4 0 0 Z " fill="#FFFFFF" transform="translate(44,246)"/>
<path d="M0 0 C3.3 0 6.6 0 10 0 C10 3.3 10 6.6 10 10 C6.7 10 3.4 10 0 10 C0 6.7 0 3.4 0 0 Z " fill="#FFFFFF" transform="translate(23,246)"/>
<path d="M0 0 C3.3 0 6.6 0 10 0 C10 3.3 10 6.6 10 10 C6.7 10 3.4 10 0 10 C0 6.7 0 3.4 0 0 Z " fill="#FFFFFF" transform="translate(296,225)"/>
<path d="M0 0 C3.3 0 6.6 0 10 0 C10 3.3 10 6.6 10 10 C6.7 10 3.4 10 0 10 C0 6.7 0 3.4 0 0 Z " fill="#FFFFFF" transform="translate(275,225)"/>
<path d="M0 0 C3.3 0 6.6 0 10 0 C10 3.3 10 6.6 10 10 C6.7 10 3.4 10 0 10 C0 6.7 0 3.4 0 0 Z " fill="#FFFFFF" transform="translate(254,225)"/>
<path d="M0 0 C3.3 0 6.6 0 10 0 C10 3.3 10 6.6 10 10 C6.7 10 3.4 10 0 10 C0 6.7 0 3.4 0 0 Z " fill="#FFFFFF" transform="translate(233,225)"/>
<path d="M0 0 C3.3 0 6.6 0 10 0 C10 3.3 10 6.6 10 10 C6.7 10 3.4 10 0 10 C0 6.7 0 3.4 0 0 Z " fill="#FFFFFF" transform="translate(212,225)"/>
<path d="M0 0 C3.3 0 6.6 0 10 0 C10 3.3 10 6.6 10 10 C6.7 10 3.4 10 0 10 C0 6.7 0 3.4 0 0 Z " fill="#FFFFFF" transform="translate(65,225)"/>
<path d="M0 0 C3.3 0 6.6 0 10 0 C10 3.3 10 6.6 10 10 C6.7 10 3.4 10 0 10 C0 6.7 0 3.4 0 0 Z " fill="#FFFFFF" transform="translate(23,225)"/>
<path d="M0 0 C0 3.3 0 6.6 0 10 C-3.63 10 -7.26 10 -11 10 C-11 7.36 -11 4.72 -11 2 C-3.375 0 -3.375 0 0 0 Z " fill="#FFFFFF" transform="translate(65,215)"/>
<path d="M0 0 C3.3 0 6.6 0 10 0 C10 3.3 10 6.6 10 10 C6.7 10 3.4 10 0 10 C0 6.7 0 3.4 0 0 Z " fill="#FFFFFF" transform="translate(296,204)"/>
<path d="M0 0 C3.3 0 6.6 0 10 0 C10 3.3 10 6.6 10 10 C6.7 10 3.4 10 0 10 C0 6.7 0 3.4 0 0 Z " fill="#FFFFFF" transform="translate(275,204)"/>
<path d="M0 0 C3.3 0 6.6 0 10 0 C10 3.3 10 6.6 10 10 C6.7 10 3.4 10 0 10 C0 6.7 0 3.4 0 0 Z " fill="#FFFFFF" transform="translate(23,204)"/>
<path d="M0 0 C3.3 0 6.6 0 10 0 C10 3.3 10 6.6 10 10 C6.7 10 3.4 10 0 10 C0 6.7 0 3.4 0 0 Z " fill="#FFFFFF" transform="translate(296,183)"/>
<path d="M0 0 C3.3 0 6.6 0 10 0 C10 3.3 10 6.6 10 10 C6.7 10 3.4 10 0 10 C0 6.7 0 3.4 0 0 Z " fill="#FFFFFF" transform="translate(275,183)"/>
<path d="M0 0 C3.3 0 6.6 0 10 0 C10 3.3 10 6.6 10 10 C6.7 10 3.4 10 0 10 C0 6.7 0 3.4 0 0 Z " fill="#FFFFFF" transform="translate(23,183)"/>
<path d="M0 0 C3.3 0 6.6 0 10 0 C10 3.3 10 6.6 10 10 C6.7 10 3.4 10 0 10 C0 6.7 0 3.4 0 0 Z " fill="#FFFFFF" transform="translate(296,162)"/>
<path d="M0 0 C3.3 0 6.6 0 10 0 C10 3.3 10 6.6 10 10 C6.7 10 3.4 10 0 10 C0 6.7 0 3.4 0 0 Z " fill="#FFFFFF" transform="translate(275,162)"/>
<path d="M0 0 C3.3 0 6.6 0 10 0 C10 3.3 10 6.6 10 10 C6.7 10 3.4 10 0 10 C0 6.7 0 3.4 0 0 Z " fill="#FFFFFF" transform="translate(296,141)"/>
<path d="M0 0 C3.3 0 6.6 0 10 0 C10 3.3 10 6.6 10 10 C6.7 10 3.4 10 0 10 C0 6.7 0 3.4 0 0 Z " fill="#FFFFFF" transform="translate(275,141)"/>
<path d="M0 0 C3.3 0 6.6 0 10 0 C10 3.3 10 6.6 10 10 C6.7 10 3.4 10 0 10 C0 6.7 0 3.4 0 0 Z " fill="#FFFFFF" transform="translate(23,141)"/>
<path d="M0 0 C3.3 0 6.6 0 10 0 C10 3.3 10 6.6 10 10 C6.7 10 3.4 10 0 10 C0 6.7 0 3.4 0 0 Z " fill="#FFFFFF" transform="translate(296,120)"/>
<path d="M0 0 C3.3 0 6.6 0 10 0 C10 3.3 10 6.6 10 10 C6.7 10 3.4 10 0 10 C0 6.7 0 3.4 0 0 Z " fill="#FFFFFF" transform="translate(275,120)"/>
<path d="M0 0 C3.3 0 6.6 0 10 0 C10 3.3 10 6.6 10 10 C6.7 10 3.4 10 0 10 C0 6.7 0 3.4 0 0 Z " fill="#FFFFFF" transform="translate(23,120)"/>
<path d="M0 0 C3.3 0 6.6 0 10 0 C10 3.3 10 6.6 10 10 C6.7 10 3.4 10 0 10 C0 6.7 0 3.4 0 0 Z " fill="#FFFFFF" transform="translate(296,99)"/>
<path d="M0 0 C3.3 0 6.6 0 10 0 C10 3.3 10 6.6 10 10 C6.7 10 3.4 10 0 10 C0 6.7 0 3.4 0 0 Z " fill="#FFFFFF" transform="translate(275,99)"/>
<path d="M0 0 C3.3 0 6.6 0 10 0 C10 3.3 10 6.6 10 10 C6.7 10 3.4 10 0 10 C0 6.7 0 3.4 0 0 Z " fill="#FFFFFF" transform="translate(23,99)"/>
<path d="M0 0 C3.3 0 6.6 0 10 0 C10 3.3 10 6.6 10 10 C6.7 10 3.4 10 0 10 C0 6.7 0 3.4 0 0 Z " fill="#FFFFFF" transform="translate(296,78)"/>
<path d="M0 0 C3.3 0 6.6 0 10 0 C10 3.3 10 6.6 10 10 C6.7 10 3.4 10 0 10 C0 6.7 0 3.4 0 0 Z " fill="#FFFFFF" transform="translate(275,78)"/>
<path d="M0 0 C3.3 0 6.6 0 10 0 C10 3.3 10 6.6 10 10 C6.7 10 3.4 10 0 10 C0 6.7 0 3.4 0 0 Z " fill="#FFFFFF" transform="translate(23,78)"/>
<path d="M0 0 C3.3 0 6.6 0 10 0 C10 3.3 10 6.6 10 10 C6.7 10 3.4 10 0 10 C0 6.7 0 3.4 0 0 Z " fill="#FFFFFF" transform="translate(296,57)"/>
<path d="M0 0 C3.3 0 6.6 0 10 0 C10 3.3 10 6.6 10 10 C6.7 10 3.4 10 0 10 C0 6.7 0 3.4 0 0 Z " fill="#FFFFFF" transform="translate(275,57)"/>
<path d="M0 0 C3.3 0 6.6 0 10 0 C10 3.3 10 6.6 10 10 C6.7 10 3.4 10 0 10 C0 6.7 0 3.4 0 0 Z " fill="#FFFFFF" transform="translate(23,57)"/>
<path d="M0 0 C3.3 0 6.6 0 10 0 C10 3.3 10 6.6 10 10 C6.7 10 3.4 10 0 10 C0 6.7 0 3.4 0 0 Z " fill="#FFFFFF" transform="translate(2,57)"/>
<path d="M0 0 C3.3 0 6.6 0 10 0 C10 3.3 10 6.6 10 10 C6.7 10 3.4 10 0 10 C0 6.7 0 3.4 0 0 Z " fill="#FFFFFF" transform="translate(296,36)"/>
<path d="M0 0 C3.3 0 6.6 0 10 0 C10 3.3 10 6.6 10 10 C6.7 10 3.4 10 0 10 C0 6.7 0 3.4 0 0 Z " fill="#FFFFFF" transform="translate(275,36)"/>
<path d="M0 0 C3.3 0 6.6 0 10 0 C10 3.3 10 6.6 10 10 C6.7 10 3.4 10 0 10 C0 6.7 0 3.4 0 0 Z " fill="#FFFFFF" transform="translate(191,36)"/>
<path d="M0 0 C3.3 0 6.6 0 10 0 C10 3.3 10 6.6 10 10 C6.7 10 3.4 10 0 10 C0 6.7 0 3.4 0 0 Z " fill="#FFFFFF" transform="translate(170,36)"/>
<path d="M0 0 C3.3 0 6.6 0 10 0 C10 3.3 10 6.6 10 10 C6.7 10 3.4 10 0 10 C0 6.7 0 3.4 0 0 Z " fill="#FFFFFF" transform="translate(149,36)"/>
<path d="M0 0 C3.3 0 6.6 0 10 0 C10 3.3 10 6.6 10 10 C6.7 10 3.4 10 0 10 C0 6.7 0 3.4 0 0 Z " fill="#FFFFFF" transform="translate(128,36)"/>
<path d="M0 0 C3.3 0 6.6 0 10 0 C10 3.3 10 6.6 10 10 C6.7 10 3.4 10 0 10 C0 6.7 0 3.4 0 0 Z " fill="#FFFFFF" transform="translate(107,36)"/>
<path d="M0 0 C3.3 0 6.6 0 10 0 C10 3.3 10 6.6 10 10 C6.7 10 3.4 10 0 10 C0 6.7 0 3.4 0 0 Z " fill="#FFFFFF" transform="translate(23,36)"/>
<path d="M0 0 C3.3 0 6.6 0 10 0 C10 3.3 10 6.6 10 10 C6.7 10 3.4 10 0 10 C0 6.7 0 3.4 0 0 Z " fill="#FFFFFF" transform="translate(2,36)"/>
<path d="M0 0 C3.3 0 6.6 0 10 0 C10 3.3 10 6.6 10 10 C6.7 10 3.4 10 0 10 C0 6.7 0 3.4 0 0 Z " fill="#FFFFFF" transform="translate(296,15)"/>
<path d="M0 0 C3.3 0 6.6 0 10 0 C10 3.3 10 6.6 10 10 C6.7 10 3.4 10 0 10 C0 6.7 0 3.4 0 0 Z " fill="#FFFFFF" transform="translate(275,15)"/>
<path d="M0 0 C3.3 0 6.6 0 10 0 C10 3.3 10 6.6 10 10 C6.7 10 3.4 10 0 10 C0 6.7 0 3.4 0 0 Z " fill="#FFFFFF" transform="translate(212,15)"/>
<path d="M0 0 C3.3 0 6.6 0 10 0 C10 3.3 10 6.6 10 10 C6.7 10 3.4 10 0 10 C0 6.7 0 3.4 0 0 Z " fill="#FFFFFF" transform="translate(191,15)"/>
<path d="M0 0 C3.3 0 6.6 0 10 0 C10 3.3 10 6.6 10 10 C6.7 10 3.4 10 0 10 C0 6.7 0 3.4 0 0 Z " fill="#FFFFFF" transform="translate(170,15)"/>
<path d="M0 0 C3.3 0 6.6 0 10 0 C10 3.3 10 6.6 10 10 C6.7 10 3.4 10 0 10 C0 6.7 0 3.4 0 0 Z " fill="#FFFFFF" transform="translate(149,15)"/>
<path d="M0 0 C3.3 0 6.6 0 10 0 C10 3.3 10 6.6 10 10 C6.7 10 3.4 10 0 10 C0 6.7 0 3.4 0 0 Z " fill="#FFFFFF" transform="translate(128,15)"/>
<path d="M0 0 C3.3 0 6.6 0 10 0 C10 3.3 10 6.6 10 10 C6.7 10 3.4 10 0 10 C0 6.7 0 3.4 0 0 Z " fill="#FFFFFF" transform="translate(107,15)"/>
<path d="M0 0 C3.3 0 6.6 0 10 0 C10 3.3 10 6.6 10 10 C6.7 10 3.4 10 0 10 C0 6.7 0 3.4 0 0 Z " fill="#FFFFFF" transform="translate(86,15)"/>
<path d="M0 0 C3.3 0 6.6 0 10 0 C10 3.3 10 6.6 10 10 C6.7 10 3.4 10 0 10 C0 6.7 0 3.4 0 0 Z " fill="#FFFFFF" transform="translate(44,15)"/>
<path d="M0 0 C3.3 0 6.6 0 10 0 C10 3.3 10 6.6 10 10 C6.7 10 3.4 10 0 10 C0 6.7 0 3.4 0 0 Z " fill="#FFFFFF" transform="translate(23,15)"/>
<path d="M0 0 C3.3 0 6.6 0 10 0 C10 3.3 10 6.6 10 10 C6.7 10 3.4 10 0 10 C0 6.7 0 3.4 0 0 Z " fill="#FFFFFF" transform="translate(2,15)"/>
<path d="M0 0 C2.64 0 5.28 0 8 0 C8.99 3.3 9.98 6.6 11 10 C7.37 10 3.74 10 0 10 C0 6.7 0 3.4 0 0 Z " fill="#EFEFEF" transform="translate(33,120)"/>
<path d="M0 0 C4.95 0.99 4.95 0.99 10 2 C10 4.64 10 7.28 10 10 C6.7 10 3.4 10 0 10 C0 6.7 0 3.4 0 0 Z " fill="#EFEFEF" transform="translate(44,215)"/>
<path d="M0 0 C3.3 0 6.6 0 10 0 C10 3.63 10 7.26 10 11 C8.02 11 6.04 11 4 11 C2.68 7.37 1.36 3.74 0 0 Z " fill="#EFEFEF" transform="translate(212,256)"/>
<path d="M0 0 C0.845625 0.495 1.69125 0.99 2.5625 1.5 C2.5625 2.16 2.5625 2.82 2.5625 3.5 C-4.14912938 4.38021369 -10.67155981 4.61381955 -17.4375 4.5 C-16.4375 1.5 -16.4375 1.5 -13.8125 -0.1875 C-8.64163965 -2.19839014 -5.09604232 -2.22372756 0 0 Z " fill="#101010" transform="translate(147.4375,146.5)"/>
<path d="M0 0 C2.97 0 5.94 0 9 0 C9 3.63 9 7.26 9 11 C6.03 11 3.06 11 0 11 C0.99 8.03 1.98 5.06 3 2 C2.01 1.34 1.02 0.68 0 0 Z " fill="#FFFFFF" transform="translate(266,151)"/>
<path d="M0 0 C3.3 0 6.6 0 10 0 C8.95833333 2.01822917 7.91666667 4.03645833 6.875 6.0546875 C5.86326254 7.94848977 5.86326254 7.94848977 6 10 C4.02 10 2.04 10 0 10 C0 6.7 0 3.4 0 0 Z " fill="#EFEFEF" transform="translate(33,204)"/>
<path d="M0 0 C3.63 0 7.26 0 11 0 C5.66634615 8.80673077 5.66634615 8.80673077 2.29296875 9.78515625 C1.53628906 9.85605469 0.77960938 9.92695313 0 10 C0 6.7 0 3.4 0 0 Z " fill="#EFEFEF" transform="translate(96,246)"/>
<path d="M0 0 C3.3 0 6.6 0 10 0 C10 2.97 10 5.94 10 9 C6.7 8.01 3.4 7.02 0 6 C0 4.02 0 2.04 0 0 Z " fill="#EFEFEF" transform="translate(149,46)"/>
<path d="M0 0 C3.63 0 7.26 0 11 0 C9.22806695 3.54386609 8.37102098 4.84126206 5.5 7.25 C4.58734375 8.03117187 4.58734375 8.03117187 3.65625 8.828125 C2 10 2 10 0 10 C0 6.7 0 3.4 0 0 Z " fill="#EFEFEF" transform="translate(243,15)"/>
<path d="M0 0 C1.65 0 3.3 0 5 0 C6.19287411 3.87684087 7 6.91621923 7 11 C4.69 11 2.38 11 0 11 C0 7.37 0 3.74 0 0 Z " fill="#FFFFFF" transform="translate(33,109)"/>
<path d="M0 0 C2.31 0 4.62 0 7 0 C6.67 3.63 6.34 7.26 6 11 C4.02 11 2.04 11 0 11 C0 7.37 0 3.74 0 0 Z " fill="#FFFFFF" transform="translate(117,46)"/>
<path d="M0 0 C2.64 0 5.28 0 8 0 C7.01 3.3 6.02 6.6 5 10 C3.35 10 1.7 10 0 10 C0 6.7 0 3.4 0 0 Z " fill="#EFEFEF" transform="translate(33,57)"/>
<path d="M0 0 C0 1.65 0 3.3 0 5 C-3.63 5 -7.26 5 -11 5 C-11.33 6.32 -11.66 7.64 -12 9 C-12.66 7.02 -13.32 5.04 -14 3 C-12.0424015 2.49713066 -10.08389623 1.9977901 -8.125 1.5 C-7.03445312 1.2215625 -5.94390625 0.943125 -4.8203125 0.65625 C-2 0 -2 0 0 0 Z " fill="#FDFDFD" transform="translate(212,220)"/>
<path d="M0 0 C3.3 0 6.6 0 10 0 C6.93906776 3.93548431 4.50884026 6.68116787 0 9 C0 6.03 0 3.06 0 0 Z " fill="#EFEFEF" transform="translate(233,25)"/>
<path d="M0 0 C3.3 0 6.6 0 10 0 C10 1.65 10 3.3 10 5 C6.7 5 3.4 5 0 5 C0 3.35 0 1.7 0 0 Z " fill="#FFFFFF" transform="translate(296,309)"/>
<path d="M0 0 C3.3 0 6.6 0 10 0 C10 1.65 10 3.3 10 5 C6.7 5 3.4 5 0 5 C0 3.35 0 1.7 0 0 Z " fill="#FFFFFF" transform="translate(275,309)"/>
<path d="M0 0 C3.3 0 6.6 0 10 0 C10 1.65 10 3.3 10 5 C6.7 5 3.4 5 0 5 C0 3.35 0 1.7 0 0 Z " fill="#FFFFFF" transform="translate(254,309)"/>
<path d="M0 0 C3.3 0 6.6 0 10 0 C10 1.65 10 3.3 10 5 C6.7 5 3.4 5 0 5 C0 3.35 0 1.7 0 0 Z " fill="#FFFFFF" transform="translate(233,309)"/>
<path d="M0 0 C3.3 0 6.6 0 10 0 C10 1.65 10 3.3 10 5 C6.7 5 3.4 5 0 5 C0 3.35 0 1.7 0 0 Z " fill="#FFFFFF" transform="translate(212,309)"/>
<path d="M0 0 C3.3 0 6.6 0 10 0 C10 1.65 10 3.3 10 5 C6.7 5 3.4 5 0 5 C0 3.35 0 1.7 0 0 Z " fill="#FFFFFF" transform="translate(191,309)"/>
<path d="M0 0 C3.3 0 6.6 0 10 0 C10 1.65 10 3.3 10 5 C6.7 5 3.4 5 0 5 C0 3.35 0 1.7 0 0 Z " fill="#FFFFFF" transform="translate(170,309)"/>
<path d="M0 0 C3.3 0 6.6 0 10 0 C10 1.65 10 3.3 10 5 C6.7 5 3.4 5 0 5 C0 3.35 0 1.7 0 0 Z " fill="#FFFFFF" transform="translate(149,309)"/>
<path d="M0 0 C3.3 0 6.6 0 10 0 C10 1.65 10 3.3 10 5 C6.7 5 3.4 5 0 5 C0 3.35 0 1.7 0 0 Z " fill="#FFFFFF" transform="translate(128,309)"/>
<path d="M0 0 C3.3 0 6.6 0 10 0 C10 1.65 10 3.3 10 5 C6.7 5 3.4 5 0 5 C0 3.35 0 1.7 0 0 Z " fill="#FFFFFF" transform="translate(107,309)"/>
<path d="M0 0 C3.3 0 6.6 0 10 0 C10 1.65 10 3.3 10 5 C6.7 5 3.4 5 0 5 C0 3.35 0 1.7 0 0 Z " fill="#FFFFFF" transform="translate(86,309)"/>
<path d="M0 0 C3.3 0 6.6 0 10 0 C10 1.65 10 3.3 10 5 C6.7 5 3.4 5 0 5 C0 3.35 0 1.7 0 0 Z " fill="#FFFFFF" transform="translate(65,309)"/>
<path d="M0 0 C3.3 0 6.6 0 10 0 C10 1.65 10 3.3 10 5 C6.7 5 3.4 5 0 5 C0 3.35 0 1.7 0 0 Z " fill="#FFFFFF" transform="translate(44,309)"/>
<path d="M0 0 C3.3 0 6.6 0 10 0 C10 1.65 10 3.3 10 5 C6.7 5 3.4 5 0 5 C0 3.35 0 1.7 0 0 Z " fill="#FFFFFF" transform="translate(23,309)"/>
<path d="M0 0 C3.3 0 6.6 0 10 0 C10 1.65 10 3.3 10 5 C6.7 5 3.4 5 0 5 C0 3.35 0 1.7 0 0 Z " fill="#FFFFFF" transform="translate(2,309)"/>
<path d="M0 0 C0.99 0 1.98 0 3 0 C3 3.63 3 7.26 3 11 C1.02 11 -0.96 11 -3 11 C-2.01 7.37 -1.02 3.74 0 0 Z " fill="#FFFFFF" transform="translate(272,109)"/>
<path d="M0 0 C1.98 0 3.96 0 6 0 C6 3.63 6 7.26 6 11 C5.01 11 4.02 11 3 11 C2.01 7.37 1.02 3.74 0 0 Z " fill="#FFFFFF" transform="translate(269,46)"/>
<path d="M0 0 C2.97 0 5.94 0 9 0 C3.375 6.75 3.375 6.75 0 9 C0 6.03 0 3.06 0 0 Z " fill="#EFEFEF" transform="translate(201,57)"/>
<path d="M0 0 C0 1.98 0 3.96 0 6 C-3.3 6 -6.6 6 -10 6 C-10 5.01 -10 4.02 -10 3 C-8.70990357 2.49596232 -7.41786211 1.99690074 -6.125 1.5 C-5.04605469 1.08234375 -5.04605469 1.08234375 -3.9453125 0.65625 C-2 0 -2 0 0 0 Z " fill="#FFFFFF" transform="translate(264,208)"/>
<path d="M0 0 C3.3 0 6.6 0 10 0 C10 2.64 10 5.28 10 8 C6.25718301 5.61820737 3.02272532 3.25524265 0 0 Z " fill="#FFFFFF" transform="translate(181,67)"/>
<path d="M0 0 C3.63 0 7.26 0 11 0 C11 1.65 11 3.3 11 5 C7.37 4.34 3.74 3.68 0 3 C0 2.01 0 1.02 0 0 Z " fill="#FFFFFF" transform="translate(138,46)"/>
<path d="M0 0 C2.97 0 5.94 0 9 0 C3.375 6.875 3.375 6.875 0 8 C0 5.36 0 2.72 0 0 Z " fill="#EFEFEF" transform="translate(222,36)"/>
<path d="M0 0 C2.15377564 2.62198774 3.40072174 4.64404172 4 8 C1.42332866 9.21676146 -0.37782003 10.05184833 -3.25 9.8125 C-3.8275 9.544375 -4.405 9.27625 -5 9 C-5.33 8.01 -5.66 7.02 -6 6 C-4.02 6 -2.04 6 0 6 C0 4.02 0 2.04 0 0 Z " fill="#F6F6F6" transform="translate(128,72)"/>
<path d="M0 0 C3.3 0 6.6 0 10 0 C10 1.32 10 2.64 10 4 C6.7 4 3.4 4 0 4 C0 2.68 0 1.36 0 0 Z " fill="#FFFFFF" transform="translate(296,0)"/>
<path d="M0 0 C3.3 0 6.6 0 10 0 C10 1.32 10 2.64 10 4 C6.7 4 3.4 4 0 4 C0 2.68 0 1.36 0 0 Z " fill="#FFFFFF" transform="translate(275,0)"/>
<path d="M0 0 C3.3 0 6.6 0 10 0 C10 1.32 10 2.64 10 4 C6.7 4 3.4 4 0 4 C0 2.68 0 1.36 0 0 Z " fill="#FFFFFF" transform="translate(254,0)"/>
<path d="M0 0 C3.3 0 6.6 0 10 0 C10 1.32 10 2.64 10 4 C6.7 4 3.4 4 0 4 C0 2.68 0 1.36 0 0 Z " fill="#FFFFFF" transform="translate(233,0)"/>
<path d="M0 0 C3.3 0 6.6 0 10 0 C10 1.32 10 2.64 10 4 C6.7 4 3.4 4 0 4 C0 2.68 0 1.36 0 0 Z " fill="#FFFFFF" transform="translate(212,0)"/>
<path d="M0 0 C3.3 0 6.6 0 10 0 C10 1.32 10 2.64 10 4 C6.7 4 3.4 4 0 4 C0 2.68 0 1.36 0 0 Z " fill="#FFFFFF" transform="translate(191,0)"/>
<path d="M0 0 C3.3 0 6.6 0 10 0 C10 1.32 10 2.64 10 4 C6.7 4 3.4 4 0 4 C0 2.68 0 1.36 0 0 Z " fill="#FFFFFF" transform="translate(170,0)"/>
<path d="M0 0 C3.3 0 6.6 0 10 0 C10 1.32 10 2.64 10 4 C6.7 4 3.4 4 0 4 C0 2.68 0 1.36 0 0 Z " fill="#FFFFFF" transform="translate(149,0)"/>
<path d="M0 0 C3.3 0 6.6 0 10 0 C10 1.32 10 2.64 10 4 C6.7 4 3.4 4 0 4 C0 2.68 0 1.36 0 0 Z " fill="#FFFFFF" transform="translate(128,0)"/>
<path d="M0 0 C3.3 0 6.6 0 10 0 C10 1.32 10 2.64 10 4 C6.7 4 3.4 4 0 4 C0 2.68 0 1.36 0 0 Z " fill="#FFFFFF" transform="translate(107,0)"/>
<path d="M0 0 C3.3 0 6.6 0 10 0 C10 1.32 10 2.64 10 4 C6.7 4 3.4 4 0 4 C0 2.68 0 1.36 0 0 Z " fill="#FFFFFF" transform="translate(86,0)"/>
<path d="M0 0 C3.3 0 6.6 0 10 0 C10 1.32 10 2.64 10 4 C6.7 4 3.4 4 0 4 C0 2.68 0 1.36 0 0 Z " fill="#FFFFFF" transform="translate(65,0)"/>
<path d="M0 0 C3.3 0 6.6 0 10 0 C10 1.32 10 2.64 10 4 C6.7 4 3.4 4 0 4 C0 2.68 0 1.36 0 0 Z " fill="#FFFFFF" transform="translate(44,0)"/>
<path d="M0 0 C3.3 0 6.6 0 10 0 C10 1.32 10 2.64 10 4 C6.7 4 3.4 4 0 4 C0 2.68 0 1.36 0 0 Z " fill="#FFFFFF" transform="translate(23,0)"/>
<path d="M0 0 C3.63 0 7.26 0 11 0 C11 1.65 11 3.3 11 5 C7.7 4.34 4.4 3.68 1 3 C0.67 2.01 0.34 1.02 0 0 Z " fill="#FFFFFF" transform="translate(33,151)"/>
<path d="M0 0 C0.99 0 1.98 0 3 0 C3.66 3.3 4.32 6.6 5 10 C3.35 10 1.7 10 0 10 C0 6.7 0 3.4 0 0 Z " fill="#EFEFEF" transform="translate(33,99)"/>
<path d="M0 0 C2.64 0 5.28 0 8 0 C7.04578192 1.14926266 6.08647955 2.29430541 5.125 3.4375 C4.59132812 4.07558594 4.05765625 4.71367188 3.5078125 5.37109375 C2 7 2 7 0 8 C0 5.36 0 2.72 0 0 Z " fill="#EFEFEF" transform="translate(212,46)"/>
<path d="M0 0 C1.98 0 3.96 0 6 0 C6 3.63 6 7.26 6 11 C4.41028035 8.61542052 3.13258407 6.3695876 1.875 3.8125 C1.52179688 3.09707031 1.16859375 2.38164062 0.8046875 1.64453125 C0.53914063 1.10183594 0.27359375 0.55914062 0 0 Z " fill="#EFEFEF" transform="translate(258,193)"/>
<path d="M0 0 C0.99 0 1.98 0 3 0 C3 3.63 3 7.26 3 11 C2.01 11 1.02 11 0 11 C0 7.37 0 3.74 0 0 Z " fill="#FFFFFF" transform="translate(33,88)"/>
<path d="M0 0 C0.99 0 1.98 0 3 0 C3 3.3 3 6.6 3 10 C2.01 10 1.02 10 0 10 C0 6.7 0 3.4 0 0 Z " fill="#EFEFEF" transform="translate(33,78)"/>
<path d="M0 0 C2.672336 3.56311466 3.77263971 5.84585747 5 10 C3.35 10 1.7 10 0 10 C0 6.7 0 3.4 0 0 Z " fill="#EFEFEF" transform="translate(44,131)"/>
<path d="M0 0 C0.33 0 0.66 0 1 0 C1 2.97 1 5.94 1 9 C-0.65 9 -2.3 9 -4 9 C-2.68 6.03 -1.36 3.06 0 0 Z " fill="#EFEFEF" transform="translate(263,132)"/>
<path d="M0 0 C1.32 0 2.64 0 4 0 C2.25 5.75 2.25 5.75 0 8 C0 5.36 0 2.72 0 0 Z " fill="#EFEFEF" transform="translate(44,193)"/>
<path d="M0 0 C1.98 0 3.96 0 6 0 C5.67 1.32 5.34 2.64 5 4 C3.0625 3.6875 3.0625 3.6875 1 3 C0.67 2.01 0.34 1.02 0 0 Z " fill="#EFEFEF" transform="translate(122,78)"/>
<path d="M0 0 C0.33 0 0.66 0 1 0 C1 1.98 1 3.96 1 6 C-0.65 6 -2.3 6 -4 6 C-1.125 1.125 -1.125 1.125 0 0 Z " fill="#FFFFFF" transform="translate(263,166)"/>
<path d="M0 0 C1.65 0 3.3 0 5 0 C5 1.98 5 3.96 5 6 C3.31237149 4.3545622 1.6459651 2.68711423 0 1 C0 0.67 0 0.34 0 0 Z " fill="#EFEFEF" transform="translate(112,67)"/>
<path d="M0 0 C0.99 0 1.98 0 3 0 C3 3.3 3 6.6 3 10 C1.19669467 6.39338934 0.53400897 3.91606575 0 0 Z " fill="#EFEFEF" transform="translate(219,277)"/>
</svg>
